<?xml version="1.0" encoding="UTF-8"?>
<svg id="svg648" width="1024" height="768" fill="none" version="1.1" viewBox="0 0 1024 768" xmlns="http://www.w3.org/2000/svg">
 <path id="BG" d="m766.3 538.9-520-14.9c-11.692-0.325-22.864-4.901-31.424-12.872s-13.92-18.789-15.076-30.428l-25.1-248c-0.668-6.638 0.05-13.343 2.108-19.69 2.058-6.346 5.412-12.196 9.85-17.178 4.437-4.983 9.86-8.99 15.927-11.766 6.067-2.777 12.644-4.264 19.315-4.366l578.8-8c6.883-0.093 13.706 1.289 20.01 4.053s11.944 6.846 16.539 11.972c4.594 5.125 8.038 11.175 10.1 17.743 2.061 6.567 2.693 13.5 1.851 20.332l-33.7 270.9c-1.502 11.885-7.37 22.787-16.463 30.587-9.093 7.799-20.762 11.938-32.737 11.613z" fill="#EAF4F9"/>
 <g class="animateSvg" id="g3914">
  <path id="path4" d="m597.3 606.2h-415.5c-3.978 0-7.794-1.58-10.607-4.393s-4.393-6.629-4.393-10.607v-235.7c0-3.978 1.58-7.794 4.393-10.607s6.629-4.393 10.607-4.393h415.5c3.978 0 7.794 1.58 10.607 4.393s4.393 6.629 4.393 10.607v235.6c8e-3 3.99-1.567 7.82-4.379 10.651-2.811 2.83-6.631 4.43-10.621 4.449z" stroke="#b9b8d8" stroke-linecap="round" stroke-linejoin="round" stroke-width="1.8"/>
  <path id="path14" d="m594.2 390.2h-90.2c-1.111-8e-3 -2.175-0.453-2.961-1.239s-1.231-1.85-1.239-2.961v-27.4c8e-3 -1.111 0.453-2.175 1.239-2.961s1.85-1.231 2.961-1.239h90.2c1.111 8e-3 2.175 0.453 2.961 1.239s1.231 1.85 1.239 2.961v27.4c-8e-3 1.111-0.453 2.175-1.239 2.961s-1.85 1.231-2.961 1.239z" stroke="#b9b8d8" stroke-linecap="round" stroke-linejoin="round" stroke-width="1.8"/>
  <path id="path16" d="m559.4 364.1h-20.8c-0.395-0.01-0.77-0.171-1.049-0.451-0.28-0.279-0.441-0.654-0.451-1.049 0.01-0.395 0.171-0.77 0.451-1.049 0.279-0.28 0.654-0.441 1.049-0.451h20.8c0.395 0.01 0.77 0.171 1.049 0.451 0.28 0.279 0.441 0.654 0.451 1.049 4e-3 0.198-0.032 0.395-0.106 0.579s-0.184 0.351-0.324 0.491-0.307 0.25-0.491 0.324-0.381 0.11-0.579 0.106z" fill="#b9b8d8"/>
  <path id="path18" d="m594.2 436h-90.2c-1.111-8e-3 -2.175-0.453-2.961-1.239s-1.231-1.85-1.239-2.961v-27.4c8e-3 -1.111 0.453-2.175 1.239-2.961s1.85-1.231 2.961-1.239h90.2c1.111 8e-3 2.175 0.453 2.961 1.239s1.231 1.85 1.239 2.961v27.4c-8e-3 1.111-0.453 2.175-1.239 2.961s-1.85 1.231-2.961 1.239z" stroke="#b9b8d8" stroke-linecap="round" stroke-linejoin="round" stroke-width="1.8"/>
  <path id="path20" d="m559.4 409.9h-20.8c-0.395-0.01-0.77-0.171-1.049-0.451-0.28-0.279-0.441-0.654-0.451-1.049 0.01-0.395 0.171-0.77 0.451-1.049 0.279-0.28 0.654-0.441 1.049-0.451h20.8c0.395 0.01 0.77 0.171 1.049 0.451 0.28 0.279 0.441 0.654 0.451 1.049 4e-3 0.198-0.032 0.395-0.106 0.579s-0.184 0.351-0.324 0.491-0.307 0.25-0.491 0.324-0.381 0.11-0.579 0.106z" fill="#b9b8d8"/>
  <path id="path22" d="m241.4 390.2h-90.2c-1.111-8e-3 -2.175-0.453-2.961-1.239s-1.231-1.85-1.239-2.961v-27.4c8e-3 -1.111 0.453-2.175 1.239-2.961s1.85-1.231 2.961-1.239h90.2c1.111 8e-3 2.175 0.453 2.961 1.239s1.231 1.85 1.239 2.961v27.4c0.014 0.555-0.086 1.108-0.292 1.623-0.206 0.516-0.515 0.985-0.908 1.377-0.392 0.393-0.861 0.702-1.377 0.908-0.515 0.206-1.068 0.306-1.623 0.292z" stroke="#b9b8d8" stroke-linecap="round" stroke-linejoin="round" stroke-width="1.8"/>
  <path id="path24" d="m206.7 364.1h-20.8c-0.395-0.01-0.77-0.171-1.049-0.451-0.28-0.279-0.441-0.654-0.451-1.049 0.01-0.395 0.171-0.77 0.451-1.049 0.279-0.28 0.654-0.441 1.049-0.451h20.8c0.395 0.01 0.77 0.171 1.049 0.451 0.28 0.279 0.441 0.654 0.451 1.049-0.01 0.395-0.171 0.77-0.451 1.049-0.279 0.28-0.654 0.441-1.049 0.451z" fill="#b9b8d8"/>
  <path id="path26" d="m241.4 436h-90.2c-1.111-8e-3 -2.175-0.453-2.961-1.239s-1.231-1.85-1.239-2.961v-27.4c8e-3 -1.111 0.453-2.175 1.239-2.961s1.85-1.231 2.961-1.239h90.2c1.111 8e-3 2.175 0.453 2.961 1.239s1.231 1.85 1.239 2.961v27.4c0.014 0.555-0.086 1.108-0.292 1.623-0.206 0.516-0.515 0.985-0.908 1.377-0.392 0.393-0.861 0.702-1.377 0.908-0.515 0.206-1.068 0.306-1.623 0.292z" stroke="#b9b8d8" stroke-linecap="round" stroke-linejoin="round" stroke-width="1.8"/>
  <path id="path28" d="m206.7 409.9h-20.8c-0.395-0.01-0.77-0.171-1.049-0.451-0.28-0.279-0.441-0.654-0.451-1.049 0.01-0.395 0.171-0.77 0.451-1.049 0.279-0.28 0.654-0.441 1.049-0.451h20.8c0.395 0.01 0.77 0.171 1.049 0.451 0.28 0.279 0.441 0.654 0.451 1.049-0.01 0.395-0.171 0.77-0.451 1.049-0.279 0.28-0.654 0.441-1.049 0.451z" fill="#b9b8d8"/>
 </g>
 <g class="animateSvg2" id="g3227">
  <g stroke="#b9b8d8" stroke-linecap="round" stroke-linejoin="round" stroke-width="1.8">
   <path id="path6-9" d="m903 590.3h-124c-3.978 0-7.794-1.58-10.607-4.393s-4.393-6.629-4.393-10.607v-344.3c0-3.978 1.58-7.794 4.393-10.607s6.629-4.393 10.607-4.393h124c3.978 0 7.794 1.58 10.607 4.393s4.393 6.629 4.393 10.607v344.3c0 3.978-1.58 7.794-4.393 10.607s-6.629 4.393-10.607 4.393z"/>
   <path id="path30-2" d="m945.2 320.9h-159.8c-1.216-0.013-2.378-0.502-3.238-1.362s-1.349-2.022-1.362-3.238v-79.7c0.013-1.216 0.502-2.378 1.362-3.238s2.022-1.349 3.238-1.362h159.9c1.216 0.013 2.378 0.502 3.238 1.362s1.349 2.022 1.362 3.238v79.7c-0.036 1.226-0.546 2.39-1.422 3.248-0.877 0.857-2.052 1.342-3.278 1.352z"/>
   <path id="path32-2" d="m945.2 419.8h-159.8c-1.216-0.013-2.378-0.502-3.238-1.362s-1.349-2.022-1.362-3.238v-79.7c0.013-1.216 0.502-2.378 1.362-3.238s2.022-1.349 3.238-1.362h159.9c1.216 0.013 2.378 0.502 3.238 1.362s1.349 2.022 1.362 3.238v79.7c-0.018 1.232-0.523 2.406-1.403 3.268-0.88 0.861-2.065 1.34-3.297 1.332z"/>
   <path id="path34-4" d="m821.3 270.6h-9.9v50.3h9.9z"/>
   <path id="path36-7" d="m831.6 284.3h-10.3v36.6h10.3z"/>
  </g>
  <path id="path38-7" d="m815.2 376.1 1.1-14.9c0.021-0.233-7e-3 -0.468-0.084-0.69-0.076-0.221-0.199-0.424-0.36-0.594-0.16-0.17-0.356-0.304-0.572-0.393-0.217-0.089-0.45-0.131-0.684-0.123h-8.6c-0.232 1e-3 -0.46 0.049-0.673 0.141-0.212 0.092-0.404 0.227-0.563 0.395s-0.282 0.367-0.362 0.584c-0.079 0.218-0.114 0.449-0.102 0.68l1.1 14.9s-9 5.8-8.9 10.6c0.1 3.7 2.3 21.4 3.3 29.2 0.127 1.05 0.635 2.017 1.428 2.717 0.792 0.701 1.814 1.086 2.872 1.083h12.4c1.058 3e-3 2.08-0.382 2.872-1.083 0.793-0.7 1.301-1.667 1.428-2.717 1-7.8 3.2-25.5 3.3-29.2 0.1-4.8-8.9-10.6-8.9-10.6z" fill="#b9b8d8"/>
 </g>
 <g class="animateSvg" id="g3903">
  <path id="path8" d="m259.9 270.1h-89.9v-8.9h89.9c0.237-1e-3 0.471 0.044 0.69 0.134s0.418 0.223 0.586 0.39c0.167 0.168 0.3 0.367 0.39 0.586s0.135 0.453 0.134 0.69v5.2c0.028 0.248 2e-3 0.499-0.077 0.735-0.079 0.237-0.209 0.453-0.381 0.634-0.171 0.181-0.38 0.322-0.612 0.414s-0.481 0.132-0.73 0.117z" stroke="#b9b8d8" stroke-linecap="round" stroke-linejoin="round" stroke-width="1.8"/>
  <path id="path10" d="m243.7 261.3h-20.3c-1.058 3e-3 -2.08-0.383-2.872-1.083-0.793-0.7-1.301-1.667-1.428-2.717l-1.6-14.4c-0.066-0.604-4e-3 -1.216 0.182-1.795 0.186-0.578 0.492-1.111 0.897-1.564 0.406-0.453 0.902-0.815 1.457-1.064 0.555-0.248 1.156-0.376 1.764-0.377h23.5c0.607 2e-3 1.208 0.132 1.762 0.381 0.554 0.248 1.05 0.611 1.455 1.063 0.405 0.453 0.711 0.985 0.898 1.563 0.186 0.578 0.249 1.189 0.185 1.793l-1.6 14.4c-0.145 1.042-0.659 1.998-1.447 2.695-0.789 0.697-1.801 1.089-2.853 1.105z" stroke="#b9b8d8" stroke-linecap="round" stroke-linejoin="round" stroke-width="1.8"/>
  <path id="path12" d="m231.1 238.3s-8-0.8-9.6-11.6c0 0 7.2 2.1 9.5 7.2 0 0 1-11.4 6.4-12.5 0 0 2.4 8.5-1.4 12.7 0 0 2.9-4.8 10.3-4.7-0.699 2.106-1.903 4.009-3.507 5.543-1.603 1.534-3.558 2.652-5.693 3.257" fill="#b9b8d8"/>
 </g>
 <path class="animateSvg2" id="path40" d="m190.9 514.2h644.2" stroke="#B9B8D8" stroke-linecap="round" stroke-linejoin="round" stroke-width="1.8"/>
 <g class="animateSvg" id="g3219">
  <path id="path42" d="m476.1 199.4-93.7 12c-2.114 0.173-4.212-0.481-5.853-1.824s-2.698-3.27-2.947-5.376l-9.9-87.8c-0.5-4.1 2.8-7.2 7-6.7l93.8 12c1.742 0.258 3.361 1.051 4.633 2.269 1.272 1.219 2.134 2.802 2.467 4.531l9.7 63.8c0.149 0.81 0.132 1.643-0.052 2.446s-0.53 1.561-1.017 2.225c-0.487 0.665-1.104 1.224-1.815 1.641-0.71 0.418-1.498 0.686-2.316 0.788z" fill="#5d88f8"/>
  <path id="path44" d="m479.9 199.4-93.7 12c-2.122 0.16-4.224-0.497-5.878-1.835s-2.735-3.257-3.022-5.365l-10-87.8c-0.5-4.1 2.8-7.2 7-6.7l93.8 12c1.742 0.258 3.361 1.051 4.633 2.269 1.272 1.219 2.134 2.802 2.467 4.531l9.8 63.8c0.176 0.805 0.181 1.639 0.014 2.446s-0.502 1.57-0.983 2.24c-0.481 0.669-1.097 1.23-1.809 1.646-0.711 0.416-1.503 0.678-2.322 0.768z" fill="#ffca29"/>
  <path id="path46" d="m408 142.3c3-1.1 4.2-5.4 0.9-9.8-5-4.1-9.7-1.1-9.1 3.7 0.187 1.271 0.687 2.476 1.455 3.506s1.78 1.852 2.945 2.394c-2.029 0.322-3.898 1.297-5.324 2.777-1.425 1.479-2.33 3.383-2.576 5.423l21.1 0.6c-0.768-2.079-2.022-3.944-3.658-5.439-1.635-1.496-3.603-2.58-5.742-3.161z" fill="#22242e"/>
  <path id="path48" class="card-lines" d="m427.3 135.9 34.4 2.5" stroke="#63657a" stroke-linecap="round" stroke-linejoin="round" stroke-width="1.8"/>
  <path id="path50" class="card-lines" d="m428.4 144.1 34.4 1.7" stroke="#63657a" stroke-linecap="round" stroke-linejoin="round" stroke-width="1.8"/>
  <path id="path52" d="m412.8 179.6c3-1.5 4.2-6.1 0.8-10.3-5-3.8-9.7-0.1-9.1 4.8 0.147 1.274 0.646 2.482 1.441 3.489s1.854 1.772 3.059 2.211c-4.1 1-7.2 4.7-7.9 9.4l21.1-1.6c-1.6-4.3-5.3-7.5-9.4-8z" fill="#22242e"/>
  <path id="path54" class="card-lines" d="m432.1 170.8 34.2-0.9" stroke="#63657a" stroke-linecap="round" stroke-linejoin="round" stroke-width="1.8"/>
  <path id="path56" class="card-lines" d="m433.2 179.3 34.3-1.8" stroke="#63657a" stroke-linecap="round" stroke-linejoin="round" stroke-width="1.8"/>
 </g>
 <g class="animateSvg2" id="g3209">
  <g class="phone1">
    <path id="path58" d="m565.9 274.4-44.8-7.9c-5.1-0.9-8.8-6.8-8.3-13.2l8.3-104.6c0.5-6.4 5.1-12.3 10.3-13.2l46-7.9c6.8-1.2 12 4 11.4 11.6l-9.8 123.8c-0.4 7.4-6.4 12.5-13.1 11.4z" fill="#22242e"/>
    <path id="path60" d="m562.4 274.4-44.8-7.9c-5.1-0.9-8.8-6.8-8.3-13.2l8.3-104.6c0.5-6.4 5.1-12.3 10.3-13.2l46-7.9c6.8-1.2 12 4 11.4 11.6l-9.8 123.8c-0.4 7.4-6.5 12.5-13.1 11.4z" fill="#22242e"/>
    <g fill="#63657a">
    <path id="path62" d="m548.9 143.3-8.6 1.2c-0.206 0.015-0.412-0.017-0.603-0.096-0.191-0.078-0.361-0.199-0.496-0.355-0.136-0.155-0.234-0.339-0.286-0.539-0.052-0.199-0.057-0.408-0.015-0.61 0.023-0.474 0.202-0.928 0.509-1.29 0.308-0.361 0.727-0.611 1.191-0.71l8.6-1.3c0.9-0.1 1.5 0.6 1.5 1.6-0.025 0.5-0.215 0.977-0.541 1.358-0.326 0.38-0.769 0.641-1.259 0.742z"/>
    <path id="path64" d="m557.6 142.1-1.2 0.2c-0.212 0.026-0.427 1e-3 -0.628-0.072s-0.381-0.192-0.527-0.348-0.254-0.344-0.314-0.549c-0.059-0.205-0.07-0.421-0.031-0.631 0.041-0.495 0.237-0.964 0.56-1.341s0.757-0.643 1.24-0.759l1.2-0.2c0.212-0.026 0.427-1e-3 0.628 0.072s0.381 0.192 0.527 0.348 0.254 0.344 0.314 0.549c0.059 0.205 0.07 0.421 0.031 0.631-0.038 0.496-0.233 0.967-0.557 1.344-0.323 0.378-0.759 0.643-1.243 0.756z"/>
    <path id="path66" d="m534.1 254.4-14.9-2.1c-1.6-0.2-2.8-2-2.6-4s1.6-3.5 3.2-3.3l14.9 1.8c1.7 0.2 3 2.1 2.9 4.2-0.2 2.2-1.8 3.7-3.5 3.4z"/>
    </g>
    <g stroke="#63657a" stroke-linecap="round" stroke-linejoin="round" stroke-width="1.8">
    <path id="path68" d="m523.7 158.8 21.3-2.4"/>
    <path id="path70" d="m520.1 203.6 10.3 0.1"/>
    <path id="path72" d="m538.4 203.7 11.3 0.1"/>
    <path id="path74" d="m558.6 203.9 12.5 0.1"/>
    </g>
    <path id="path76" d="m548.3 195.7-24.9 0.3c-1.5 0-2.6-1.5-2.4-3.3l1.7-21.6c0.038-0.846 0.351-1.655 0.893-2.306 0.542-0.65 1.282-1.105 2.107-1.294l25.1-2.2c1.7-0.2 3 1.3 2.8 3.3l-1.8 23.4c-0.089 0.918-0.482 1.78-1.116 2.45-0.633 0.67-1.472 1.11-2.384 1.25z" fill="#b0c4d7"/>
    <path id="path78" d="m581 195.2-16.7 0.2c-0.443-0.012-0.879-0.118-1.278-0.311-0.399-0.194-0.752-0.47-1.036-0.811-0.284-0.34-0.492-0.737-0.61-1.165-0.119-0.427-0.144-0.875-0.076-1.313l1.9-24c0.086-0.967 0.483-1.879 1.132-2.601 0.65-0.721 1.516-1.212 2.468-1.399l16.8-1.5z" fill="#ffca29"/>
    <path id="path80" d="m564.8 240.5-44.6-4.2c-1.5-0.1-2.5-1.7-2.4-3.6l1.4-17.7c0.1-1.8 1.5-3.3 2.9-3.3l44.9 1.3c0.466 0.036 0.92 0.168 1.333 0.387s0.776 0.521 1.067 0.887 0.503 0.788 0.624 1.24c0.12 0.452 0.146 0.924 0.076 1.386l-1.6 20.2c-0.011 0.469-0.117 0.931-0.311 1.358-0.193 0.427-0.471 0.811-0.817 1.128-0.345 0.318-0.751 0.562-1.193 0.719s-0.911 0.223-1.379 0.195z" fill="#f4c2c9"/>
  </g>
  
  <g class="phone2">
    <path id="path82" d="m644.7 275.9-44.6-9.2c-5-1-8.5-7-8-13.4l8.3-104.6c0.5-6.4 5-12.4 10.2-13.4l46.1-9.2c7-1.4 12.3 3.7 11.7 11.5l-10 126.9c-0.8 7.7-7 12.8-13.7 11.4z" fill="#22242e"/>
    <path id="path84" d="m641.9 275.9-44.6-9.2c-5-1-8.5-7-8-13.4l8.3-104.6c0.5-6.4 5-12.4 10.2-13.4l46.1-9.2c7-1.4 12.3 3.7 11.7 11.5l-10 126.9c-0.8 7.7-7 12.8-13.7 11.4z" fill="#22242e"/>
    <path id="path86" d="m628.4 142.7-8.6 1.4c-0.8 0.1-1.4-0.6-1.4-1.6 0.036-0.482 0.218-0.941 0.521-1.316 0.304-0.375 0.715-0.649 1.179-0.784l8.6-1.5c0.9-0.2 1.5 0.6 1.5 1.6-0.072 0.495-0.278 0.962-0.595 1.35-0.317 0.387-0.734 0.681-1.205 0.85z" fill="#63657a"/>
    <path id="path88" d="m637.1 141.2-1.2 0.2c-0.9 0.2-1.6-0.6-1.5-1.6 0.038-0.507 0.232-0.99 0.554-1.383 0.322-0.394 0.757-0.679 1.246-0.817l1.2-0.2c0.9-0.2 1.6 0.6 1.5 1.6-0.035 0.508-0.228 0.992-0.55 1.386s-0.759 0.679-1.25 0.814z" fill="#63657a"/>
    <path id="path90" d="m603.4 158.7 21.1-2.7" stroke="#63657a" stroke-linecap="round" stroke-linejoin="round" stroke-width="1.8"/>
    <path id="path92" d="m613.5 254.9-14.7-2.4c-1.6-0.3-2.7-2.1-2.5-4.1s1.5-3.5 3.1-3.2l14.7 2c1.7 0.2 3 2.2 2.8 4.3-0.1 2.2-1.7 3.7-3.4 3.4z" fill="#63657a"/>
    <path id="path94" d="m648 195.3-45 0.7c-1.5 0-2.5-1.5-2.4-3.3l1.7-21.7c0.1-1.8 1.4-3.5 2.9-3.6l45.3-4.7c0.456-0.037 0.915 0.031 1.341 0.198s0.808 0.43 1.117 0.768 0.536 0.742 0.665 1.181c0.128 0.439 0.155 0.902 0.077 1.353l-2 25.1c3e-3 1.011-0.377 1.985-1.064 2.727-0.686 0.743-1.628 1.197-2.636 1.273z" fill="#ffca29"/>
    <path id="path96" d="m629.1 179.3-4.6-3c-0.6-0.4-1.5 0.2-1.5 1.1l-0.5 6.5c-0.044 0.178-0.031 0.365 0.037 0.535 0.068 0.171 0.188 0.315 0.342 0.415 0.154 0.099 0.335 0.147 0.518 0.138s0.359-0.074 0.503-0.188l5.1-3.5c0.167-0.104 0.306-0.247 0.406-0.417 0.099-0.169 0.156-0.36 0.166-0.557 0.01-0.196-0.028-0.392-0.11-0.571s-0.206-0.335-0.362-0.455z" fill="#22242e"/>
    <path id="path98" d="m644.7 236.6-44.5-4.4c-1.4-0.1-2.5-1.7-2.3-3.6l1.7-21.7c0.1-1.8 1.4-3.3 2.9-3.3l44.9 0.4c0.471 0.034 0.929 0.164 1.348 0.381s0.79 0.518 1.089 0.882c0.299 0.365 0.521 0.787 0.652 1.24 0.132 0.454 0.169 0.929 0.111 1.397l-2 25.1c-0.3 2.2-2 3.8-3.9 3.6z" fill="#63657a"/>
    <path id="path100" d="m626 218.4-4.5-3.5c-0.6-0.5-1.5 0.1-1.5 1l-0.5 6.5c-0.1 0.9 0.7 1.5 1.4 1.1l5-3c0.168-0.115 0.307-0.268 0.406-0.446 0.099-0.177 0.155-0.376 0.165-0.579 0.01-0.204-0.028-0.406-0.109-0.593-0.082-0.186-0.206-0.351-0.362-0.482z" fill="#22242e"/>
  </g>

  <path id="path102" d="m433.5 205.3c-1e-3 0.486 0.093 0.968 0.279 1.417 0.185 0.45 0.458 0.858 0.802 1.202s0.752 0.617 1.202 0.802c0.449 0.186 0.931 0.28 1.417 0.279h75.6" stroke="#63657a" stroke-linecap="round" stroke-linejoin="round" stroke-width="1.8"/>
  <path id="path104" d="m583.6 209h9.3" stroke="#63657a" stroke-linecap="round" stroke-linejoin="round" stroke-width="1.8"/>
 </g>
 <g class="animateSvg" id="msggggg">
  <path id="path106" d="m347.3 486.5h-147.3c-1.164-0.01-2.277-0.477-3.1-1.3s-1.29-1.936-1.3-3.1c0.01-1.164 0.477-2.277 1.3-3.1s1.936-1.29 3.1-1.3h147.3c1.164 0.01 2.277 0.477 3.1 1.3s1.29 1.936 1.3 3.1c-0.01 1.164-0.477 2.277-1.3 3.1s-1.936 1.29-3.1 1.3z" fill="#22242e"/>
  <path id="path108" d="m218.8 486.5h-10.8l-1 12.8h10.5z" fill="#6d74af"/>
  <path id="path110" d="m207 499.3-11.6 154.1c-0.036 0.444 0.02 0.89 0.165 1.31 0.144 0.421 0.373 0.808 0.673 1.136 0.301 0.329 0.665 0.592 1.071 0.773 0.407 0.181 0.846 0.277 1.291 0.281 0.801 0.011 1.577-0.283 2.17-0.821 0.594-0.538 0.962-1.281 1.03-2.079l15.7-154.6h-10.5z" fill="#b0c4d7"/>
  <path id="path112" d="m328.5 486.5h10.9l0.9 12.8h-10.5z" fill="#6d74af"/>
  <path id="path114" d="m340.3 499.3 11.7 154.1c0.036 0.444-0.02 0.89-0.165 1.31-0.144 0.421-0.373 0.808-0.673 1.136-0.301 0.329-0.665 0.592-1.071 0.773-0.407 0.181-0.846 0.277-1.291 0.281-0.801 0.011-1.577-0.283-2.17-0.821-0.594-0.538-0.962-1.281-1.03-2.079l-15.7-154.6h10.4z" fill="#b0c4d7"/>
  <path id="path116" d="m503.7 486.5h-147.3c-1.164-0.01-2.277-0.477-3.1-1.3s-1.29-1.936-1.3-3.1c0.01-1.164 0.477-2.277 1.3-3.1s1.936-1.29 3.1-1.3h147.3c1.164 0.01 2.277 0.477 3.1 1.3s1.29 1.936 1.3 3.1c4e-3 0.579-0.107 1.153-0.327 1.689-0.22 0.535-0.543 1.022-0.953 1.431-0.409 0.41-0.896 0.733-1.431 0.953-0.536 0.22-1.11 0.331-1.689 0.327z" fill="#22242e"/>
  <path id="path118" d="m375.3 486.5h-10.9l-1 12.8h10.6z" fill="#6d74af"/>
  <path id="path120" d="m363.4 499.3-11.6 154.1c-0.036 0.444 0.02 0.89 0.164 1.31 0.145 0.421 0.374 0.808 0.674 1.136 0.301 0.329 0.665 0.592 1.071 0.773 0.407 0.181 0.846 0.277 1.291 0.281 0.801 0.011 1.577-0.283 2.17-0.821 0.594-0.538 0.962-1.281 1.03-2.079l15.8-154.7z" fill="#b0c4d7"/>
  <path id="path122" d="m484.9 486.5h10.9l1 12.8h-10.6z" fill="#6d74af"/>
  <path id="path124" d="m496.8 499.3 11.6 154.1c0.036 0.444-0.02 0.89-0.164 1.31-0.145 0.421-0.374 0.808-0.674 1.136-0.301 0.329-0.665 0.592-1.071 0.773-0.407 0.181-0.846 0.277-1.291 0.281-0.801 0.011-1.577-0.283-2.17-0.821-0.594-0.538-0.962-1.281-1.03-2.079l-15.7-154.6h10.5z" fill="#b0c4d7"/>
 </g>
 <g class="animateSvg" id="g3166" transform="translate(30.8,-3.9)">
  <path id="path126" d="m743.5 603.4 1.9 18.5c0.4 3.4 1.1 7.6 1.6 10.3 0.164 0.893 0.113 1.811-0.148 2.681-0.26 0.869-0.724 1.664-1.352 2.319-0.346 3.425-0.346 6.875 0 10.3v0.2c0.192 1.588-0.245 3.188-1.216 4.458-0.972 1.27-2.401 2.111-3.984 2.342-7.313 1.202-14.694 1.936-22.1 2.2-4.975 0.204-9.958 3e-3 -14.9-0.6-0.889-0.102-1.735-0.436-2.454-0.97-0.718-0.533-1.283-1.246-1.638-2.068-0.355-0.821-0.487-1.722-0.383-2.61 0.104-0.889 0.44-1.735 0.975-2.452 4.2-5.5 9.9-13.3 13.1-18 5.3-8 4.6-18.8 3.4-26.7s22.8-5.9 27.2 0.1z" fill="#f4c2c9"/>
  <path id="path128" d="m744.2 610.3c-0.4-3.8-0.7-6.9-0.7-6.9-4.3-6-28.4-7.9-27.2 0 0.752 4.626 0.987 9.322 0.7 14 10.1 1.7 21.6 0.3 27.2-7.1z" fill="#e2c26e"/>
  <path id="path130" d="m745.5 647.7c-0.348-3.425-0.348-6.875 0-10.3 0.622-0.659 1.082-1.454 1.342-2.322s0.315-1.785 0.158-2.678c-0.5-2.7-1.2-6.9-1.6-10.3 0.016-0.173-0.019-0.346-0.1-0.5-3.1 2.9-6.4 5.6-7.7 9.7-0.335 1.081-1.069 1.994-2.055 2.552-0.985 0.558-2.146 0.718-3.245 0.448-7.4-1.9-14.8-2.3-22.2 0.1-3.1 4.4-7.2 9.8-10.3 14-0.541 0.715-0.883 1.562-0.991 2.453-0.107 0.89 0.024 1.794 0.38 2.617 0.356 0.824 0.924 1.538 1.646 2.071 0.722 0.532 1.573 0.863 2.465 0.959 4.95 0.504 9.926 0.705 14.9 0.6 7.406-0.264 14.787-0.998 22.1-2.2 1.582-0.231 3.012-1.072 3.984-2.342 0.971-1.27 1.408-2.87 1.216-4.458z" fill="#22242e"/>
  <path id="path132" d="m798.3 605.4s3.1 11.8 3.1 15.9c0 2.9-0.7 10-1.2 14.2-0.208 1.655 0.107 3.333 0.9 4.8 0.203 0.293 0.308 0.643 0.3 1 0.1 0.7 0.1 3.7 0.1 6.5-7e-3 1.545 0.563 3.038 1.599 4.185s2.463 1.865 4.001 2.015c5.958 0.413 11.934 0.48 17.9 0.2 6.9-0.2 11.6-0.6 14.7-0.9 0.746-0.078 1.461-0.338 2.084-0.755 0.622-0.418 1.133-0.982 1.488-1.643 0.355-0.66 0.543-1.398 0.548-2.147 5e-3 -0.75-0.174-1.49-0.52-2.155-4.2-7.8-11.5-21.8-13-25.2-2.1-4.9-4.3-19.1-4.3-19.1s-27.1-11.1-27.7 3.1z" fill="#f4c2c9"/>
  <path id="path134" d="m828.4 614.8c-1.3-5.8-2.4-12.5-2.4-12.5s-27.1-11.1-27.6 3.1c0 0 0.7 2.6 1.4 5.8 9.5 3.7 19 4.4 28.6 3.6z" fill="#e2c26e"/>
  <g fill="#22242e">
   <path id="path136" d="m843.3 646.6c-1.8-3.3-4.1-7.8-6.4-12.1-0.394-0.083-0.797-0.116-1.2-0.1-7.9-2.2-16.8 1.1-24.7 1.1-3.1-1-4.3-9.6-9.7-12.7-0.2 3.4-0.7 9.2-1.1 12.8-0.208 1.655 0.107 3.333 0.9 4.8 0.203 0.293 0.308 0.643 0.3 1 0.1 0.7 0.1 3.7 0.1 6.5-7e-3 1.546 0.563 3.038 1.599 4.185s2.463 1.865 4.001 2.015c5.958 0.413 11.935 0.48 17.9 0.2 6.9-0.2 11.6-0.6 14.7-0.9 0.753-0.085 1.474-0.353 2.101-0.78 0.626-0.427 1.139-1 1.493-1.67 0.355-0.67 0.541-1.416 0.542-2.174s-0.183-1.505-0.536-2.176z"/>
   <path id="path138" d="m794.8 343.3s8.1 12.5 10.3 37.1c1.3 14.2-0.5 63.7 0 68.4 0.4 3.6 7 48.3 13.1 89.3 3 19.6 8.4 39.2 11.5 51.9 1.29 4.736 0.828 9.777-1.3 14.2 0 0-2 6.5-11.5 7-11.1 0.5-14.9-0.9-20.1-3.1-2.014-0.896-3.783-2.263-5.158-3.986s-2.315-3.751-2.742-5.914c-2-11-4.6-31.3-10.8-52.9-7.8-27-17.7-58.4-21.6-82.8-0.5-2.9-2.6-12.5-4.8-21.6-1.9-7.7-3.8-15-4.8-17.8-3.6-10-3.2-10.4-4.4-12.8-1.9-3.8-6.3 0.9-10.7-17.3-0.807-3.757-1.342-7.566-1.6-11.4-1-11.5-1.3-25.6-1.3-25.6s50.5-25 65.9-12.7z"/>
   <path id="path140" d="m703.8 355.1c-4.656 32.961-6.961 66.212-6.9 99.5 0 11.3 2.9 37.7 6.3 65.3 3.6 29.5 4.2 53.5 6.2 77.1 0.233 3.142 1.539 6.107 3.7 8.4 1 1 1.9 2.1 2.9 3.1 1.6 1.8 5.3 4.5 12.9 4.3 11.3-0.3 16.6-5.8 18.7-8.5 1.7-2.2 3.8-4.8 3.9-11.7 0.3-16.8-3.8-22.4-2.5-76.9 0.45-17.785-0.117-35.58-1.7-53.3-0.6-6.2 20.9-76.6 22.8-85.7s-50.5-30.7-66.3-21.6z"/>
  </g>
  <g stroke="#63657a" stroke-linecap="round" stroke-linejoin="round" stroke-width="1.8">
   <path id="path142" d="m783.9 368s1.9 14.9 15.2 22.4"/>
   <path id="path144" d="m751.5 440.9c-1.9-7.7-3.8-15-4.8-17.8-3.6-10-3.2-10.4-4.4-12.8-1.9-3.8-6.3 0.9-10.7-17.3"/>
   <path id="path146" d="m712.4 481.8c7.069 0 12.8-6.268 12.8-14s-5.731-14-12.8-14-12.8 6.268-12.8 14 5.731 14 12.8 14z"/>
   <path id="path148" d="m782.3 481.8c7.677 0 13.9-6.268 13.9-14s-6.223-14-13.9-14-13.9 6.268-13.9 14 6.223 14 13.9 14z"/>
  </g>
  <path id="path150" d="m719.1 301.4c-12.8 17.3-26.3 25.1-37.8 17.7-9.9-6.4-20-53.6-23.3-70.1-0.7-3.6-1.1-5.7-1.1-5.7l-1.1-4.9s-10.6-1.7-13.2-2.5c-1.623-0.429-3.138-1.193-4.447-2.244-1.309-1.05-2.383-2.364-3.153-3.856-2.1-3.8-7.8-10.2-5.1-11.1s9.9 7.9 9.9 7.9c5.317 0.041 10.63-0.293 15.9-1 9.6-1.2 14.5-1.2 17.5 2.8 1.228 1.872 2.14 3.932 2.7 6.1l2.2 5.9 15 39.9s0.7-1.3 1.8-3.4c10.7 6.1 17.7 15.1 24.2 24.5z" fill="#f4c2c9"/>
  <path id="path152" d="m713.8 308c1.893-2.095 3.663-4.299 5.3-6.6-6.5-9.3-13.6-18.4-24.3-24.5-0.4 0.8-0.7 1.4-1 1.9 8.8 8.3 15.2 18.3 20 29.2z" fill="#e2c26e"/>
  <path id="path154" d="m693.1 276.4c10.7 6.2 19.6 15.7 26.1 25 1.5-2.1 3.1-4.3 4.6-6.6-8.555-8.459-17.859-16.124-27.8-22.9-1.109 1.403-2.08 2.91-2.9 4.5z" fill="#fff"/>
  <path id="path156" d="m717.5 240.8s-6 4.6-12.6 17c-2.739 4.83-5.743 9.503-9 14 9.917 6.807 19.22 14.47 27.8 22.9 1.8-2.8 3.6-5.8 5.4-8.9 15.6-27.8-2.1-50.1-11.6-45z" fill="#6d74af"/>
  <path id="path158" d="m693.1 280.3s2.1 5.8 3.9 11" stroke="#e2c26e" stroke-linecap="round" stroke-linejoin="round" stroke-width="1.8"/>
  <path id="path160" d="m634.1 228.3s-4.9-3.7-7.5-5.4 1.7-3.6 5.6-2 10.7 3.9 10.7 3.9-4.2-4-5.3-5.4 1.7-2.6 4.4-0.9 7.3 5.9 10.5 7.3 3.1 5 1.5 5.6-13.8-0.7-19.9-3.1z" fill="#f4c2c9"/>
  <path id="path162" d="m670.1 225.9s-5.4-2.7-7.6-3.6c-2.167-0.896-4.409-1.599-6.7-2.1-0.9-0.1-2.6 1.6 0.7 4.3s5.2 4.3 5.2 4.3 10 0.4 8.4-2.9z" fill="#f4c2c9"/>
  <path id="path164" d="m717.5 240.4s5.8-7.9 34.4-9.9 45.5 4.3 51.5 14.2-10.3 65.4-11.8 73.1 6.1 27 6.1 31.1-32.8 16.2-53.5 15.8c-13.624-0.338-27.047-3.363-39.5-8.9-0.872-0.397-1.584-1.078-2.02-1.931-0.436-0.854-0.57-1.83-0.38-2.769 1.2-6 3.8-19.7 6.3-31.6 3.3-15.9-5.8-55.4 8.9-79.1z" fill="#ffca29"/>
  <g fill="#5d88f8">
   <path id="path166" d="m701.5 371.4 1.1 1.4c0.188 0.235 0.327 0.505 0.408 0.794 0.082 0.289 0.105 0.592 0.067 0.89-0.037 0.299-0.134 0.587-0.284 0.847s-0.351 0.488-0.591 0.669l-1.4 1.1c-0.235 0.188-0.505 0.327-0.794 0.408-0.289 0.082-0.592 0.105-0.89 0.067-0.299-0.037-0.587-0.133-0.847-0.284-0.26-0.15-0.488-0.351-0.669-0.591l-1.1-1.4c-0.188-0.235-0.327-0.505-0.408-0.794-0.082-0.289-0.105-0.592-0.068-0.89 0.038-0.299 0.134-0.587 0.285-0.847 0.15-0.26 0.351-0.488 0.591-0.669l1.4-1.1c0.489-0.338 1.086-0.485 1.676-0.411 0.591 0.074 1.133 0.363 1.524 0.811z"/>
   <path id="path168" d="m703.9 351.1 1.1 1.4c0.188 0.235 0.327 0.505 0.408 0.794 0.082 0.289 0.105 0.592 0.068 0.89-0.038 0.299-0.134 0.587-0.285 0.847-0.15 0.26-0.351 0.488-0.591 0.669l-1.4 1.1c-0.235 0.188-0.505 0.327-0.794 0.408-0.289 0.082-0.592 0.105-0.89 0.068-0.299-0.038-0.587-0.134-0.847-0.285-0.26-0.15-0.488-0.351-0.669-0.591l-1-1.4c-0.188-0.235-0.327-0.505-0.408-0.794-0.082-0.289-0.105-0.592-0.068-0.89 0.038-0.299 0.134-0.587 0.285-0.847 0.15-0.26 0.351-0.488 0.591-0.669l1.4-1.1c0.474-0.332 1.054-0.474 1.627-0.4 0.574 0.074 1.099 0.359 1.473 0.8z"/>
   <path id="path170" d="m706.3 330.9 1.1 1.4c0.188 0.235 0.327 0.505 0.408 0.794 0.082 0.289 0.105 0.592 0.067 0.89-0.037 0.299-0.133 0.587-0.284 0.847-0.15 0.26-0.351 0.488-0.591 0.669l-1.4 1.1c-0.235 0.188-0.505 0.327-0.794 0.408-0.289 0.082-0.592 0.105-0.89 0.068-0.299-0.038-0.587-0.134-0.847-0.285-0.26-0.15-0.488-0.351-0.669-0.591l-1.1-1.4c-0.188-0.235-0.327-0.505-0.408-0.794-0.082-0.289-0.105-0.592-0.068-0.89 0.038-0.299 0.134-0.587 0.285-0.847 0.15-0.26 0.351-0.488 0.591-0.669l1.4-1.1c0.235-0.188 0.505-0.327 0.794-0.408 0.289-0.082 0.592-0.105 0.89-0.067 0.299 0.037 0.587 0.133 0.847 0.284 0.26 0.15 0.488 0.351 0.669 0.591z"/>
   <path id="path172" d="m708.7 310.6 1.1 1.4c0.188 0.235 0.327 0.505 0.408 0.794 0.082 0.289 0.105 0.592 0.067 0.89-0.037 0.299-0.133 0.587-0.284 0.847-0.15 0.26-0.351 0.488-0.591 0.669l-1.4 1.1c-0.235 0.188-0.505 0.327-0.794 0.408-0.289 0.082-0.592 0.105-0.89 0.068-0.299-0.038-0.587-0.134-0.847-0.285-0.26-0.15-0.488-0.351-0.669-0.591l-1.1-1.4c-0.188-0.235-0.327-0.505-0.408-0.794-0.082-0.289-0.105-0.592-0.068-0.89 0.038-0.299 0.134-0.587 0.285-0.847 0.15-0.26 0.351-0.488 0.591-0.669l1.4-1.1c0.235-0.188 0.505-0.327 0.794-0.408 0.289-0.082 0.592-0.105 0.89-0.068 0.299 0.038 0.586 0.134 0.847 0.285 0.26 0.15 0.488 0.351 0.669 0.591z"/>
   <path id="path174" d="m711.1 290.3 1.1 1.4c0.188 0.235 0.327 0.505 0.408 0.794 0.082 0.289 0.105 0.592 0.068 0.89-0.038 0.299-0.134 0.587-0.285 0.847-0.15 0.26-0.351 0.488-0.591 0.669l-1.4 1.1c-0.235 0.188-0.505 0.327-0.794 0.408-0.289 0.082-0.592 0.105-0.89 0.067-0.299-0.037-0.587-0.133-0.847-0.284-0.26-0.15-0.488-0.351-0.669-0.591l-1.1-1.4c-0.188-0.235-0.327-0.505-0.408-0.794-0.082-0.289-0.105-0.592-0.068-0.89 0.038-0.299 0.134-0.587 0.285-0.847 0.15-0.26 0.351-0.488 0.591-0.669l1.4-1.1c0.484-0.354 1.085-0.51 1.679-0.436 0.595 0.075 1.139 0.374 1.521 0.836z"/>
   <path id="path176" d="m719.8 373.6 1.1 1.4c0.188 0.235 0.327 0.505 0.408 0.794 0.082 0.289 0.105 0.592 0.067 0.89-0.037 0.299-0.133 0.587-0.284 0.847-0.15 0.26-0.351 0.488-0.591 0.669l-1.4 1.1c-0.235 0.188-0.505 0.327-0.794 0.408-0.289 0.082-0.592 0.105-0.89 0.068-0.299-0.038-0.587-0.134-0.847-0.285-0.26-0.15-0.488-0.351-0.669-0.591l-1.1-1.4c-0.188-0.235-0.327-0.505-0.408-0.794-0.082-0.289-0.105-0.592-0.068-0.89 0.038-0.299 0.134-0.587 0.285-0.847 0.15-0.26 0.351-0.488 0.591-0.669l1.4-1.1c0.235-0.188 0.505-0.327 0.794-0.408 0.289-0.082 0.592-0.105 0.89-0.068 0.299 0.038 0.587 0.134 0.847 0.285 0.26 0.15 0.488 0.351 0.669 0.591z"/>
   <path id="path178" d="m722.2 353.3 1.1 1.4c0.188 0.235 0.327 0.505 0.408 0.794 0.082 0.289 0.105 0.592 0.067 0.89-0.037 0.299-0.133 0.587-0.284 0.847-0.15 0.26-0.351 0.488-0.591 0.669l-1.4 1.1c-0.235 0.188-0.505 0.327-0.794 0.408-0.289 0.082-0.592 0.105-0.89 0.067-0.299-0.037-0.587-0.133-0.847-0.284-0.26-0.15-0.488-0.351-0.669-0.591l-1.1-1.4c-0.188-0.235-0.327-0.505-0.408-0.794-0.082-0.289-0.105-0.592-0.068-0.89 0.038-0.299 0.134-0.587 0.285-0.847 0.15-0.26 0.351-0.488 0.591-0.669l1.4-1.1c0.484-0.354 1.085-0.51 1.679-0.436 0.595 0.075 1.139 0.374 1.521 0.836z"/>
   <path id="path180" d="m724.6 333 1.1 1.4c0.188 0.235 0.327 0.505 0.408 0.794 0.082 0.289 0.105 0.592 0.068 0.89-0.038 0.299-0.134 0.587-0.285 0.847-0.15 0.26-0.351 0.488-0.591 0.669l-1.4 1.1c-0.235 0.188-0.505 0.327-0.794 0.408-0.289 0.082-0.592 0.105-0.89 0.068-0.299-0.038-0.587-0.134-0.847-0.285-0.26-0.15-0.488-0.351-0.669-0.591l-1.1-1.4c-0.188-0.235-0.327-0.505-0.408-0.794-0.082-0.289-0.105-0.592-0.068-0.89 0.038-0.299 0.134-0.587 0.285-0.847 0.15-0.26 0.351-0.488 0.591-0.669l1.4-1.1c0.484-0.354 1.085-0.51 1.679-0.436 0.595 0.075 1.139 0.374 1.521 0.836z"/>
   <path id="path182" d="m726.9 312.7 1.1 1.4c0.188 0.235 0.327 0.505 0.408 0.794 0.082 0.289 0.105 0.592 0.068 0.89-0.038 0.299-0.134 0.587-0.285 0.847-0.15 0.26-0.351 0.488-0.591 0.669l-1.4 1.1c-0.235 0.188-0.505 0.327-0.794 0.408-0.289 0.082-0.592 0.105-0.89 0.068-0.299-0.038-0.587-0.134-0.847-0.285-0.26-0.15-0.488-0.351-0.669-0.591l-1.1-1.4c-0.188-0.235-0.327-0.505-0.408-0.794-0.082-0.289-0.105-0.592-0.068-0.89 0.038-0.299 0.134-0.587 0.285-0.847 0.15-0.26 0.351-0.488 0.591-0.669l1.4-1.1c0.489-0.338 1.086-0.484 1.676-0.411 0.591 0.074 1.133 0.363 1.524 0.811z"/>
   <path id="path184" d="m729.3 292.4 1.1 1.4c0.188 0.235 0.327 0.505 0.408 0.794 0.082 0.289 0.105 0.592 0.067 0.89-0.037 0.299-0.133 0.587-0.284 0.847-0.15 0.26-0.351 0.488-0.591 0.669l-1.4 1.1c-0.235 0.188-0.505 0.327-0.794 0.408-0.289 0.082-0.592 0.105-0.89 0.067-0.299-0.037-0.587-0.133-0.847-0.284-0.26-0.15-0.488-0.351-0.669-0.591l-1.1-1.4c-0.188-0.235-0.327-0.505-0.408-0.794-0.082-0.289-0.105-0.592-0.068-0.89 0.038-0.299 0.134-0.587 0.285-0.847 0.15-0.26 0.351-0.488 0.591-0.669l1.4-1.1c0.491-0.334 1.086-0.478 1.675-0.404 0.59 0.074 1.132 0.359 1.525 0.804z"/>
   <path id="path186" d="m738.1 375.7 1.1 1.4c0.188 0.235 0.327 0.505 0.408 0.794 0.082 0.289 0.105 0.592 0.068 0.89-0.038 0.299-0.134 0.587-0.285 0.847-0.15 0.26-0.351 0.488-0.591 0.669l-1.4 1.1c-0.235 0.188-0.505 0.327-0.794 0.408-0.289 0.082-0.592 0.105-0.89 0.068-0.299-0.038-0.587-0.134-0.847-0.285-0.26-0.15-0.488-0.351-0.669-0.591l-1.1-1.4c-0.188-0.235-0.327-0.505-0.408-0.794-0.082-0.289-0.105-0.592-0.068-0.89 0.038-0.299 0.134-0.587 0.285-0.847 0.15-0.26 0.351-0.488 0.591-0.669l1.4-1.1c0.484-0.354 1.085-0.51 1.679-0.436 0.595 0.075 1.139 0.374 1.521 0.836z"/>
   <path id="path188" d="m740.5 355.4 1.1 1.4c0.188 0.235 0.327 0.505 0.408 0.794 0.082 0.289 0.105 0.592 0.067 0.89-0.037 0.299-0.134 0.587-0.284 0.847s-0.351 0.488-0.591 0.669l-1.4 1.1c-0.235 0.188-0.505 0.327-0.794 0.408-0.289 0.082-0.592 0.105-0.89 0.068-0.299-0.038-0.587-0.134-0.847-0.285-0.26-0.15-0.488-0.351-0.669-0.591l-1.1-1.4c-0.188-0.235-0.327-0.505-0.408-0.794-0.082-0.289-0.105-0.592-0.068-0.89 0.038-0.299 0.134-0.587 0.285-0.847 0.15-0.26 0.351-0.488 0.591-0.669l1.4-1.1c0.491-0.332 1.087-0.474 1.675-0.401 0.589 0.074 1.13 0.358 1.525 0.801z"/>
   <path id="path190" d="m742.8 335.2 1.1 1.4c0.188 0.235 0.327 0.505 0.408 0.794 0.082 0.289 0.105 0.592 0.067 0.89-0.037 0.299-0.133 0.587-0.284 0.847-0.15 0.26-0.351 0.488-0.591 0.669l-1.4 1.1c-0.235 0.188-0.505 0.327-0.794 0.408-0.289 0.082-0.592 0.105-0.89 0.068-0.299-0.038-0.587-0.134-0.847-0.285-0.26-0.15-0.488-0.351-0.669-0.591l-1.1-1.4c-0.188-0.235-0.327-0.505-0.408-0.794-0.082-0.289-0.105-0.592-0.068-0.89 0.038-0.299 0.134-0.587 0.285-0.847 0.15-0.26 0.351-0.488 0.591-0.669l1.4-1.1c0.234-0.19 0.503-0.332 0.793-0.415s0.593-0.107 0.893-0.069c0.299 0.037 0.587 0.135 0.847 0.287 0.261 0.152 0.487 0.355 0.667 0.597z"/>
   <path id="path192" d="m745.2 314.9 1.1 1.4c0.188 0.235 0.327 0.505 0.408 0.794 0.082 0.289 0.105 0.592 0.067 0.89-0.037 0.299-0.133 0.587-0.284 0.847-0.15 0.26-0.351 0.488-0.591 0.669l-1.4 1.1c-0.235 0.188-0.505 0.327-0.794 0.408-0.289 0.082-0.592 0.105-0.89 0.068-0.299-0.038-0.587-0.134-0.847-0.285-0.26-0.15-0.488-0.351-0.669-0.591l-1.1-1.4c-0.188-0.235-0.327-0.505-0.408-0.794-0.082-0.289-0.105-0.592-0.068-0.89 0.038-0.299 0.134-0.587 0.285-0.847 0.15-0.26 0.351-0.488 0.591-0.669l1.4-1.1c0.235-0.188 0.505-0.327 0.794-0.408 0.289-0.082 0.592-0.105 0.89-0.067 0.299 0.037 0.586 0.133 0.847 0.284 0.26 0.15 0.488 0.351 0.669 0.591z"/>
   <path id="path194" d="m747.6 294.6 1.1 1.4c0.188 0.235 0.327 0.505 0.408 0.794 0.082 0.289 0.105 0.592 0.068 0.89-0.038 0.299-0.134 0.587-0.285 0.847-0.15 0.26-0.351 0.488-0.591 0.669l-1.4 1.1c-0.235 0.188-0.505 0.327-0.794 0.408-0.289 0.082-0.592 0.105-0.89 0.068-0.299-0.038-0.587-0.134-0.847-0.285-0.26-0.15-0.488-0.351-0.669-0.591l-1.1-1.4c-0.188-0.235-0.327-0.505-0.408-0.794-0.082-0.289-0.105-0.592-0.068-0.89 0.038-0.299 0.134-0.587 0.285-0.847 0.15-0.26 0.351-0.488 0.591-0.669l1.4-1.1c0.235-0.188 0.505-0.327 0.794-0.408 0.289-0.082 0.592-0.105 0.89-0.068 0.299 0.038 0.587 0.134 0.847 0.285 0.26 0.15 0.488 0.351 0.669 0.591z"/>
   <path id="path196" d="m756.3 377.9 1.1 1.4c0.188 0.235 0.327 0.505 0.408 0.794 0.082 0.289 0.105 0.592 0.067 0.89-0.037 0.299-0.133 0.587-0.284 0.847-0.15 0.26-0.351 0.488-0.591 0.669l-1.4 1.1c-0.235 0.188-0.505 0.327-0.794 0.408-0.289 0.082-0.592 0.105-0.89 0.068-0.299-0.038-0.587-0.134-0.847-0.285-0.26-0.15-0.488-0.351-0.669-0.591l-1.1-1.4c-0.188-0.235-0.327-0.505-0.408-0.794-0.082-0.289-0.105-0.592-0.068-0.89 0.038-0.299 0.134-0.587 0.285-0.847 0.15-0.26 0.351-0.488 0.591-0.669l1.4-1.1c0.234-0.19 0.503-0.332 0.793-0.415s0.593-0.107 0.893-0.069c0.299 0.037 0.587 0.135 0.847 0.287 0.261 0.152 0.487 0.355 0.667 0.597z"/>
   <path id="path198" d="m758.7 357.6 1.1 1.4c0.188 0.235 0.327 0.505 0.408 0.794 0.082 0.289 0.105 0.592 0.067 0.89-0.037 0.299-0.133 0.587-0.284 0.847-0.15 0.26-0.351 0.488-0.591 0.669l-1.4 1.1c-0.235 0.188-0.505 0.327-0.794 0.408-0.289 0.082-0.592 0.105-0.89 0.068-0.299-0.038-0.587-0.134-0.847-0.285-0.26-0.15-0.488-0.351-0.669-0.591l-1.1-1.4c-0.188-0.235-0.327-0.505-0.408-0.794-0.082-0.289-0.105-0.592-0.068-0.89 0.038-0.299 0.134-0.587 0.285-0.847 0.15-0.26 0.351-0.488 0.591-0.669l1.4-1.1c0.235-0.188 0.505-0.327 0.794-0.408 0.289-0.082 0.592-0.105 0.89-0.068 0.299 0.038 0.586 0.134 0.847 0.285 0.26 0.15 0.488 0.351 0.669 0.591z"/>
   <path id="path200" d="m761.1 337.3 1.1 1.4c0.188 0.235 0.327 0.505 0.408 0.794 0.082 0.289 0.105 0.592 0.068 0.89-0.038 0.299-0.134 0.587-0.285 0.847-0.15 0.26-0.351 0.488-0.591 0.669l-1.4 1.1c-0.235 0.188-0.505 0.327-0.794 0.408-0.289 0.082-0.592 0.105-0.89 0.067-0.299-0.037-0.587-0.133-0.847-0.284-0.26-0.15-0.488-0.351-0.669-0.591l-1.1-1.4c-0.188-0.235-0.327-0.505-0.408-0.794-0.082-0.289-0.105-0.592-0.068-0.89 0.038-0.299 0.134-0.587 0.285-0.847 0.15-0.26 0.351-0.488 0.591-0.669l1.4-1.1c0.484-0.354 1.085-0.51 1.679-0.436 0.595 0.075 1.139 0.374 1.521 0.836z"/>
   <path id="path202" d="m763.5 317 1.1 1.4c0.188 0.235 0.327 0.505 0.408 0.794 0.082 0.289 0.105 0.592 0.067 0.89-0.037 0.299-0.134 0.587-0.284 0.847s-0.351 0.488-0.591 0.669l-1.4 1.1c-0.235 0.188-0.505 0.327-0.794 0.408-0.289 0.082-0.592 0.105-0.89 0.068-0.299-0.038-0.587-0.134-0.847-0.285-0.26-0.15-0.488-0.351-0.669-0.591l-1.1-1.4c-0.188-0.235-0.327-0.505-0.408-0.794-0.082-0.289-0.105-0.592-0.068-0.89 0.038-0.299 0.134-0.587 0.285-0.847 0.15-0.26 0.351-0.488 0.591-0.669l1.4-1.1c0.484-0.354 1.085-0.51 1.679-0.436 0.595 0.075 1.139 0.374 1.521 0.836z"/>
   <path id="path204" d="m765.9 296.7 1.1 1.4c0.188 0.235 0.327 0.505 0.408 0.794 0.082 0.289 0.105 0.592 0.068 0.89-0.038 0.299-0.134 0.587-0.285 0.847-0.15 0.26-0.351 0.488-0.591 0.669l-1.4 1.1c-0.235 0.188-0.505 0.327-0.794 0.408-0.289 0.082-0.592 0.105-0.89 0.068-0.299-0.038-0.587-0.134-0.847-0.285-0.26-0.15-0.488-0.351-0.669-0.591l-1.1-1.4c-0.188-0.235-0.327-0.505-0.408-0.794-0.082-0.289-0.105-0.592-0.068-0.89 0.038-0.299 0.134-0.587 0.285-0.847 0.15-0.26 0.351-0.488 0.591-0.669l1.4-1.1c0.491-0.332 1.087-0.474 1.675-0.401 0.589 0.074 1.13 0.358 1.525 0.801z"/>
   <path id="path206" d="m774.6 380 1.1 1.4c0.188 0.235 0.327 0.505 0.408 0.794 0.082 0.289 0.105 0.592 0.068 0.89-0.038 0.299-0.134 0.587-0.285 0.847-0.15 0.26-0.351 0.488-0.591 0.669l-1.4 1.1c-0.235 0.188-0.505 0.327-0.794 0.408-0.289 0.082-0.592 0.105-0.89 0.068-0.299-0.038-0.587-0.134-0.847-0.285-0.26-0.15-0.488-0.351-0.669-0.591l-1.1-1.4c-0.188-0.235-0.327-0.505-0.408-0.794-0.082-0.289-0.105-0.592-0.068-0.89 0.038-0.299 0.134-0.587 0.285-0.847 0.15-0.26 0.351-0.488 0.591-0.669l1.4-1.1c0.484-0.354 1.085-0.51 1.679-0.436 0.595 0.075 1.139 0.374 1.521 0.836z"/>
   <path id="path208" d="m777 359.7 1.1 1.4c0.188 0.235 0.327 0.505 0.408 0.794 0.082 0.289 0.105 0.592 0.067 0.89-0.037 0.299-0.134 0.587-0.284 0.847s-0.351 0.488-0.591 0.669l-1.4 1.1c-0.235 0.188-0.505 0.327-0.794 0.408-0.289 0.082-0.592 0.105-0.89 0.068-0.299-0.038-0.587-0.134-0.847-0.285-0.26-0.15-0.488-0.351-0.669-0.591l-1.1-1.4c-0.188-0.235-0.327-0.505-0.408-0.794-0.082-0.289-0.105-0.592-0.068-0.89 0.038-0.299 0.134-0.587 0.285-0.847 0.15-0.26 0.351-0.488 0.591-0.669l1.4-1.1c0.484-0.354 1.085-0.51 1.679-0.436 0.595 0.075 1.139 0.374 1.521 0.836z"/>
   <path id="path210" d="m779.4 339.4 1.1 1.4c0.188 0.235 0.327 0.505 0.408 0.794 0.082 0.289 0.105 0.592 0.068 0.89-0.038 0.299-0.134 0.587-0.285 0.847-0.15 0.26-0.351 0.488-0.591 0.669l-1.4 1.1c-0.235 0.188-0.505 0.327-0.794 0.408-0.289 0.082-0.592 0.105-0.89 0.068-0.299-0.038-0.587-0.134-0.847-0.285-0.26-0.15-0.488-0.351-0.669-0.591l-1.1-1.4c-0.188-0.235-0.327-0.505-0.408-0.794-0.082-0.289-0.105-0.592-0.068-0.89 0.038-0.299 0.134-0.587 0.285-0.847 0.15-0.26 0.351-0.488 0.591-0.669l1.4-1.1c0.491-0.332 1.087-0.474 1.675-0.401 0.589 0.074 1.13 0.358 1.525 0.801z"/>
   <path id="path212" d="m781.7 319.2 1.1 1.4c0.188 0.235 0.327 0.505 0.408 0.794 0.082 0.289 0.105 0.592 0.067 0.89-0.037 0.299-0.133 0.587-0.284 0.847-0.15 0.26-0.351 0.488-0.591 0.669l-1.4 1.1c-0.235 0.188-0.505 0.327-0.794 0.408-0.289 0.082-0.592 0.105-0.89 0.068-0.299-0.038-0.587-0.134-0.847-0.285-0.26-0.15-0.488-0.351-0.669-0.591l-1.1-1.4c-0.188-0.235-0.327-0.505-0.408-0.794-0.082-0.289-0.105-0.592-0.068-0.89 0.038-0.299 0.134-0.587 0.285-0.847 0.15-0.26 0.351-0.488 0.591-0.669l1.4-1.1c0.234-0.19 0.503-0.332 0.793-0.415s0.593-0.107 0.893-0.069c0.299 0.037 0.587 0.135 0.847 0.287 0.261 0.152 0.487 0.355 0.667 0.597z"/>
   <path id="path214" d="m784.1 298.9 1.1 1.4c0.188 0.235 0.327 0.505 0.408 0.794 0.082 0.289 0.105 0.592 0.068 0.89-0.038 0.299-0.134 0.587-0.285 0.847-0.15 0.26-0.351 0.488-0.591 0.669l-1.4 1.1c-0.235 0.188-0.505 0.327-0.794 0.408-0.289 0.082-0.592 0.105-0.89 0.067-0.299-0.037-0.587-0.133-0.847-0.284-0.26-0.15-0.488-0.351-0.669-0.591l-1.1-1.4c-0.188-0.235-0.327-0.505-0.408-0.794-0.082-0.289-0.105-0.592-0.068-0.89 0.038-0.299 0.134-0.587 0.285-0.847 0.15-0.26 0.351-0.488 0.591-0.669l1.4-1.1c0.234-0.189 0.504-0.329 0.794-0.412 0.289-0.082 0.592-0.105 0.891-0.068s0.587 0.135 0.847 0.286 0.487 0.353 0.668 0.594z"/>
   <path id="path216" d="m792.9 382.1 1.1 1.4c0.188 0.235 0.327 0.505 0.408 0.794 0.082 0.289 0.105 0.592 0.068 0.89-0.038 0.299-0.134 0.587-0.285 0.847-0.15 0.26-0.351 0.488-0.591 0.669l-1.4 1.1c-0.235 0.188-0.505 0.327-0.794 0.408-0.289 0.082-0.592 0.105-0.89 0.068-0.299-0.038-0.587-0.134-0.847-0.285-0.26-0.15-0.488-0.351-0.669-0.591l-1-1.4c-0.188-0.235-0.327-0.505-0.408-0.794-0.082-0.289-0.105-0.592-0.068-0.89 0.038-0.299 0.134-0.587 0.285-0.847 0.15-0.26 0.351-0.488 0.591-0.669l1.4-1.1c0.474-0.329 1.054-0.471 1.627-0.397s1.098 0.358 1.473 0.797z"/>
   <path id="path218" d="m795.2 361.9 1.1 1.4c0.188 0.235 0.327 0.505 0.408 0.794 0.082 0.289 0.105 0.592 0.067 0.89-0.037 0.299-0.133 0.587-0.284 0.847-0.15 0.26-0.351 0.488-0.591 0.669l-1.4 1.1c-0.235 0.188-0.505 0.327-0.794 0.408-0.289 0.082-0.592 0.105-0.89 0.068-0.299-0.038-0.587-0.134-0.847-0.285-0.26-0.15-0.488-0.351-0.669-0.591l-1.1-1.4c-0.188-0.235-0.327-0.505-0.408-0.794-0.082-0.289-0.105-0.592-0.068-0.89 0.038-0.299 0.134-0.587 0.285-0.847 0.15-0.26 0.351-0.488 0.591-0.669l1.4-1.1c0.234-0.19 0.503-0.332 0.793-0.415s0.593-0.107 0.893-0.069c0.299 0.037 0.587 0.135 0.847 0.287 0.261 0.152 0.487 0.355 0.667 0.597z"/>
   <path id="path220" d="m797.6 341.6 1.1 1.4c0.188 0.235 0.327 0.505 0.408 0.794 0.082 0.289 0.105 0.592 0.068 0.89-0.038 0.299-0.134 0.587-0.285 0.847-0.15 0.26-0.351 0.488-0.591 0.669l-1.4 1.1c-0.235 0.188-0.505 0.327-0.794 0.408-0.289 0.082-0.592 0.105-0.89 0.068-0.299-0.038-0.587-0.134-0.847-0.285-0.26-0.15-0.488-0.351-0.669-0.591l-1.1-1.4c-0.188-0.235-0.327-0.505-0.408-0.794-0.082-0.289-0.105-0.592-0.068-0.89 0.038-0.299 0.134-0.587 0.285-0.847 0.15-0.26 0.351-0.488 0.591-0.669l1.4-1.1c0.234-0.189 0.504-0.329 0.794-0.411 0.289-0.083 0.592-0.106 0.891-0.069s0.587 0.135 0.847 0.286 0.487 0.353 0.668 0.594z"/>
   <path id="path222" d="m800 321.3 1.1 1.4c0.188 0.235 0.327 0.505 0.408 0.794 0.082 0.289 0.105 0.592 0.067 0.89-0.037 0.299-0.134 0.587-0.284 0.847s-0.351 0.488-0.591 0.669l-1.4 1.1c-0.235 0.188-0.505 0.327-0.794 0.408-0.289 0.082-0.592 0.105-0.89 0.067-0.299-0.037-0.587-0.133-0.847-0.284-0.26-0.15-0.488-0.351-0.669-0.591l-1.1-1.4c-0.188-0.235-0.327-0.505-0.408-0.794-0.082-0.289-0.105-0.592-0.068-0.89 0.038-0.299 0.134-0.587 0.285-0.847 0.15-0.26 0.351-0.488 0.591-0.669l1.4-1.1c0.484-0.354 1.085-0.51 1.679-0.436 0.595 0.075 1.139 0.374 1.521 0.836z"/>
   <path id="path224" d="m802.4 301 1.1 1.4c0.188 0.235 0.327 0.505 0.408 0.794 0.082 0.289 0.105 0.592 0.068 0.89-0.038 0.299-0.134 0.587-0.285 0.847-0.15 0.26-0.351 0.488-0.591 0.669l-1.4 1.1c-0.235 0.188-0.505 0.327-0.794 0.408-0.289 0.082-0.592 0.105-0.89 0.068-0.299-0.038-0.587-0.134-0.847-0.285-0.26-0.15-0.488-0.351-0.669-0.591l-1.1-1.4c-0.188-0.235-0.327-0.505-0.408-0.794-0.082-0.289-0.105-0.592-0.068-0.89 0.038-0.299 0.134-0.587 0.285-0.847 0.15-0.26 0.351-0.488 0.591-0.669l1.4-1.1c0.484-0.354 1.085-0.51 1.679-0.436 0.595 0.075 1.139 0.374 1.521 0.836z"/>
   <path id="path226" d="m811.1 384.3 1.1 1.4c0.188 0.235 0.327 0.505 0.408 0.794 0.082 0.289 0.105 0.592 0.068 0.89-0.038 0.299-0.134 0.587-0.285 0.847-0.15 0.26-0.351 0.488-0.591 0.669l-1.4 1.1c-0.235 0.188-0.505 0.327-0.794 0.408-0.289 0.082-0.592 0.105-0.89 0.067-0.299-0.037-0.587-0.133-0.847-0.284-0.26-0.15-0.488-0.351-0.669-0.591l-1.1-1.4c-0.188-0.235-0.327-0.505-0.408-0.794-0.082-0.289-0.105-0.592-0.068-0.89 0.038-0.299 0.134-0.587 0.285-0.847 0.15-0.26 0.351-0.488 0.591-0.669l1.4-1.1c0.234-0.189 0.504-0.329 0.794-0.411 0.289-0.083 0.592-0.106 0.891-0.069s0.587 0.135 0.847 0.286 0.487 0.353 0.668 0.594z"/>
   <path id="path228" d="m813.5 364 1.1 1.4c0.188 0.235 0.327 0.505 0.408 0.794 0.082 0.289 0.105 0.592 0.067 0.89-0.037 0.299-0.134 0.587-0.284 0.847s-0.351 0.488-0.591 0.669l-1.4 1.1c-0.235 0.188-0.505 0.327-0.794 0.408-0.289 0.082-0.592 0.105-0.89 0.068-0.299-0.038-0.587-0.134-0.847-0.285-0.26-0.15-0.488-0.351-0.669-0.591l-1.1-1.4c-0.188-0.235-0.327-0.505-0.408-0.794-0.082-0.289-0.105-0.592-0.068-0.89 0.038-0.299 0.134-0.587 0.285-0.847 0.15-0.26 0.351-0.488 0.591-0.669l1.4-1.1c0.484-0.354 1.085-0.51 1.679-0.436 0.595 0.075 1.139 0.374 1.521 0.836z"/>
   <path id="path230" d="m815.9 343.7 1.1 1.4c0.188 0.235 0.327 0.505 0.408 0.794 0.082 0.289 0.105 0.592 0.068 0.89-0.038 0.299-0.134 0.587-0.285 0.847-0.15 0.26-0.351 0.488-0.591 0.669l-1.4 1.1c-0.235 0.188-0.505 0.327-0.794 0.408-0.289 0.082-0.592 0.105-0.89 0.068-0.299-0.038-0.587-0.134-0.847-0.285-0.26-0.15-0.488-0.351-0.669-0.591l-1.1-1.4c-0.188-0.235-0.327-0.505-0.408-0.794-0.082-0.289-0.105-0.592-0.068-0.89 0.038-0.299 0.134-0.587 0.285-0.847 0.15-0.26 0.351-0.488 0.591-0.669l1.4-1.1c0.491-0.332 1.087-0.474 1.675-0.401 0.589 0.074 1.13 0.358 1.525 0.801z"/>
   <path id="path232" d="m818.3 323.4 1.1 1.4c0.188 0.235 0.327 0.505 0.408 0.794 0.082 0.289 0.105 0.592 0.067 0.89-0.037 0.299-0.133 0.587-0.284 0.847-0.15 0.26-0.351 0.488-0.591 0.669l-1.4 1.1c-0.235 0.188-0.505 0.327-0.794 0.408-0.289 0.082-0.592 0.105-0.89 0.068-0.299-0.038-0.587-0.134-0.847-0.285-0.26-0.15-0.488-0.351-0.669-0.591l-1.1-1.4c-0.188-0.235-0.327-0.505-0.408-0.794-0.082-0.289-0.105-0.592-0.068-0.89 0.038-0.299 0.134-0.587 0.285-0.847 0.15-0.26 0.351-0.488 0.591-0.669l1.4-1.1c0.491-0.332 1.087-0.474 1.675-0.401 0.589 0.074 1.13 0.358 1.525 0.801z"/>
   <path id="path234" d="m820.6 303.2 1.1 1.4c0.188 0.235 0.327 0.505 0.408 0.794 0.082 0.289 0.105 0.592 0.068 0.89-0.038 0.299-0.134 0.587-0.285 0.847-0.15 0.26-0.351 0.488-0.591 0.669l-1.4 1.1c-0.235 0.188-0.505 0.327-0.794 0.408-0.289 0.082-0.592 0.105-0.89 0.068-0.299-0.038-0.587-0.134-0.847-0.285-0.26-0.15-0.488-0.351-0.669-0.591l-1.1-1.4c-0.188-0.235-0.327-0.505-0.408-0.794-0.082-0.289-0.105-0.592-0.068-0.89 0.038-0.299 0.134-0.587 0.285-0.847 0.15-0.26 0.351-0.488 0.591-0.669l1.4-1.1c0.234-0.19 0.503-0.332 0.793-0.415s0.593-0.107 0.892-0.069c0.3 0.037 0.588 0.135 0.848 0.287 0.261 0.152 0.487 0.355 0.667 0.597z"/>
   <path id="path236" d="m713.4 270 1.1 1.4c0.188 0.235 0.327 0.505 0.408 0.794 0.082 0.289 0.105 0.592 0.068 0.89-0.038 0.299-0.134 0.587-0.285 0.847-0.15 0.26-0.351 0.488-0.591 0.669l-1.4 1.1c-0.235 0.188-0.505 0.327-0.794 0.408-0.289 0.082-0.592 0.105-0.89 0.068-0.299-0.038-0.587-0.134-0.847-0.285-0.26-0.15-0.488-0.351-0.669-0.591l-1.1-1.4c-0.188-0.235-0.327-0.505-0.408-0.794-0.082-0.289-0.105-0.592-0.068-0.89 0.038-0.299 0.134-0.587 0.285-0.847 0.15-0.26 0.351-0.488 0.591-0.669l1.4-1.1c0.481-0.361 1.084-0.522 1.681-0.447s1.142 0.378 1.519 0.847z"/>
   <path id="path238" d="m715.8 249.7 1.1 1.4c0.188 0.235 0.327 0.505 0.408 0.794 0.082 0.289 0.105 0.592 0.067 0.89-0.037 0.299-0.133 0.587-0.284 0.847-0.15 0.26-0.351 0.488-0.591 0.669l-1.4 1.1c-0.235 0.188-0.505 0.327-0.794 0.408-0.289 0.082-0.592 0.105-0.89 0.068-0.299-0.038-0.587-0.134-0.847-0.285-0.26-0.15-0.488-0.351-0.669-0.591l-1.1-1.4c-0.188-0.235-0.327-0.505-0.408-0.794-0.082-0.289-0.105-0.592-0.068-0.89 0.038-0.299 0.134-0.587 0.285-0.847 0.15-0.26 0.351-0.488 0.591-0.669l1.4-1.1c0.491-0.334 1.086-0.478 1.675-0.404 0.59 0.074 1.132 0.359 1.525 0.804z"/>
   <path id="path240" d="m718.2 229.5 1.1 1.4c0.188 0.235 0.327 0.505 0.408 0.794 0.082 0.289 0.105 0.592 0.067 0.89-0.037 0.299-0.133 0.587-0.284 0.847-0.15 0.26-0.351 0.488-0.591 0.669l-1.4 1.1c-0.235 0.188-0.505 0.327-0.794 0.408-0.289 0.082-0.592 0.105-0.89 0.068-0.299-0.038-0.587-0.134-0.847-0.285-0.26-0.15-0.488-0.351-0.669-0.591l-1.1-1.4c-0.188-0.235-0.327-0.505-0.408-0.794-0.082-0.289-0.105-0.592-0.068-0.89 0.038-0.299 0.134-0.587 0.285-0.847 0.15-0.26 0.351-0.488 0.591-0.669l1.4-1.1c0.235-0.188 0.505-0.327 0.794-0.408 0.289-0.082 0.592-0.105 0.89-0.068 0.299 0.038 0.586 0.134 0.847 0.285 0.26 0.15 0.488 0.351 0.669 0.591z"/>
   <path id="path242" d="m720.6 209.2 1.1 1.4c0.188 0.235 0.327 0.505 0.408 0.794 0.082 0.289 0.105 0.592 0.068 0.89-0.038 0.299-0.134 0.587-0.285 0.847-0.15 0.26-0.351 0.488-0.591 0.669l-1.4 1.1c-0.235 0.188-0.505 0.327-0.794 0.408-0.289 0.082-0.592 0.105-0.89 0.067-0.299-0.037-0.587-0.133-0.847-0.284-0.26-0.15-0.488-0.351-0.669-0.591l-1.1-1.4c-0.188-0.235-0.327-0.505-0.408-0.794-0.082-0.289-0.105-0.592-0.068-0.89 0.038-0.299 0.134-0.587 0.285-0.847 0.15-0.26 0.351-0.488 0.591-0.669l1.4-1.1c0.235-0.188 0.505-0.327 0.794-0.408 0.289-0.082 0.592-0.105 0.89-0.068 0.299 0.038 0.587 0.134 0.847 0.285 0.26 0.15 0.488 0.351 0.669 0.591z"/>
   <path id="path244" d="m731.7 272.2 1.1 1.4c0.188 0.235 0.327 0.505 0.408 0.794 0.082 0.289 0.105 0.592 0.067 0.89-0.037 0.299-0.133 0.587-0.284 0.847-0.15 0.26-0.351 0.488-0.591 0.669l-1.4 1.1c-0.235 0.188-0.505 0.327-0.794 0.408-0.289 0.082-0.592 0.105-0.89 0.068-0.299-0.038-0.587-0.134-0.847-0.285-0.26-0.15-0.488-0.351-0.669-0.591l-1.1-1.4c-0.188-0.235-0.327-0.505-0.408-0.794-0.082-0.289-0.105-0.592-0.068-0.89 0.038-0.299 0.134-0.587 0.285-0.847 0.15-0.26 0.351-0.488 0.591-0.669l1.4-1.1c0.235-0.188 0.505-0.327 0.794-0.408 0.289-0.082 0.592-0.105 0.89-0.067 0.299 0.037 0.586 0.133 0.847 0.284 0.26 0.15 0.488 0.351 0.669 0.591z"/>
   <path id="path246" d="m734.1 251.9 1.1 1.4c0.188 0.235 0.327 0.505 0.408 0.794 0.082 0.289 0.105 0.592 0.068 0.89-0.038 0.299-0.134 0.587-0.285 0.847-0.15 0.26-0.351 0.488-0.591 0.669l-1.4 1.1c-0.235 0.188-0.505 0.327-0.794 0.408-0.289 0.082-0.592 0.105-0.89 0.067-0.299-0.037-0.587-0.133-0.847-0.284-0.26-0.15-0.488-0.351-0.669-0.591l-1.1-1.4c-0.188-0.235-0.327-0.505-0.408-0.794-0.082-0.289-0.105-0.592-0.068-0.89 0.038-0.299 0.134-0.587 0.285-0.847 0.15-0.26 0.351-0.488 0.591-0.669l1.4-1.1c0.235-0.188 0.505-0.327 0.794-0.408 0.289-0.082 0.592-0.105 0.89-0.068 0.299 0.038 0.587 0.134 0.847 0.285 0.26 0.15 0.488 0.351 0.669 0.591z"/>
   <path id="path248" d="m736.5 231.6 1.1 1.4c0.188 0.235 0.327 0.505 0.408 0.794 0.082 0.289 0.105 0.592 0.067 0.89-0.037 0.299-0.134 0.587-0.284 0.847s-0.351 0.488-0.591 0.669l-1.4 1.1c-0.235 0.188-0.505 0.327-0.794 0.408-0.289 0.082-0.592 0.105-0.89 0.068-0.299-0.038-0.587-0.134-0.847-0.285-0.26-0.15-0.488-0.351-0.669-0.591l-1.1-1.4c-0.188-0.235-0.327-0.505-0.408-0.794-0.082-0.289-0.105-0.592-0.068-0.89 0.038-0.299 0.134-0.587 0.285-0.847 0.15-0.26 0.351-0.488 0.591-0.669l1.4-1.1c0.484-0.354 1.085-0.51 1.679-0.436 0.595 0.075 1.139 0.374 1.521 0.836z"/>
   <path id="path250" d="m738.8 211.3 1.1 1.4c0.188 0.235 0.327 0.505 0.408 0.794 0.082 0.289 0.105 0.592 0.067 0.89-0.037 0.299-0.133 0.587-0.284 0.847-0.15 0.26-0.351 0.488-0.591 0.669l-1.4 1.1c-0.235 0.188-0.505 0.327-0.794 0.408-0.289 0.082-0.592 0.105-0.89 0.068-0.299-0.038-0.587-0.134-0.847-0.285-0.26-0.15-0.488-0.351-0.669-0.591l-1.1-1.4c-0.188-0.235-0.327-0.505-0.408-0.794-0.082-0.289-0.105-0.592-0.068-0.89 0.038-0.299 0.134-0.587 0.285-0.847 0.15-0.26 0.351-0.488 0.591-0.669l1.4-1.1c0.481-0.361 1.084-0.522 1.681-0.447s1.142 0.378 1.519 0.847z"/>
   <path id="path252" d="m750 274.3 1.1 1.4c0.188 0.235 0.327 0.505 0.408 0.794 0.082 0.289 0.105 0.592 0.067 0.89-0.037 0.299-0.134 0.587-0.284 0.847s-0.351 0.488-0.591 0.669l-1.4 1.1c-0.235 0.188-0.505 0.327-0.794 0.408-0.289 0.082-0.592 0.105-0.89 0.067-0.299-0.037-0.587-0.133-0.847-0.284-0.26-0.15-0.488-0.351-0.669-0.591l-1.1-1.4c-0.188-0.235-0.327-0.505-0.408-0.794-0.082-0.289-0.105-0.592-0.068-0.89 0.038-0.299 0.134-0.587 0.285-0.847 0.15-0.26 0.351-0.488 0.591-0.669l1.4-1.1c0.484-0.354 1.085-0.51 1.679-0.436 0.595 0.075 1.139 0.374 1.521 0.836z"/>
   <path id="path254" d="m752.4 254 1.1 1.4c0.188 0.235 0.327 0.505 0.408 0.794 0.082 0.289 0.105 0.592 0.068 0.89-0.038 0.299-0.134 0.587-0.285 0.847-0.15 0.26-0.351 0.488-0.591 0.669l-1.4 1.1c-0.235 0.188-0.505 0.327-0.794 0.408-0.289 0.082-0.592 0.105-0.89 0.068-0.299-0.038-0.587-0.134-0.847-0.285-0.26-0.15-0.488-0.351-0.669-0.591l-1.1-1.4c-0.188-0.235-0.327-0.505-0.408-0.794-0.082-0.289-0.105-0.592-0.068-0.89 0.038-0.299 0.134-0.587 0.285-0.847 0.15-0.26 0.351-0.488 0.591-0.669l1.4-1.1c0.484-0.354 1.085-0.51 1.679-0.436 0.595 0.075 1.139 0.374 1.521 0.836z"/>
   <path id="path256" d="m754.7 233.7 1.1 1.4c0.188 0.235 0.327 0.505 0.408 0.794 0.082 0.289 0.105 0.592 0.067 0.89-0.037 0.299-0.133 0.587-0.284 0.847-0.15 0.26-0.351 0.488-0.591 0.669l-1.4 1.1c-0.235 0.188-0.505 0.327-0.794 0.408-0.289 0.082-0.592 0.105-0.89 0.068-0.299-0.038-0.587-0.134-0.847-0.285-0.26-0.15-0.488-0.351-0.669-0.591l-1.1-1.4c-0.188-0.235-0.327-0.505-0.408-0.794-0.082-0.289-0.105-0.592-0.068-0.89 0.038-0.299 0.134-0.587 0.285-0.847 0.15-0.26 0.351-0.488 0.591-0.669l1.4-1.1c0.489-0.338 1.086-0.484 1.676-0.411 0.591 0.074 1.133 0.363 1.524 0.811z"/>
   <path id="path258" d="m757.1 213.5 1.1 1.4c0.188 0.235 0.327 0.505 0.408 0.794 0.082 0.289 0.105 0.592 0.068 0.89-0.038 0.299-0.134 0.587-0.285 0.847-0.15 0.26-0.351 0.488-0.591 0.669l-1.4 1.1c-0.235 0.188-0.505 0.327-0.794 0.408-0.289 0.082-0.592 0.105-0.89 0.068-0.299-0.038-0.587-0.134-0.847-0.285-0.26-0.15-0.488-0.351-0.669-0.591l-1.1-1.4c-0.188-0.235-0.327-0.505-0.408-0.794-0.082-0.289-0.105-0.592-0.068-0.89 0.038-0.299 0.134-0.587 0.285-0.847 0.15-0.26 0.351-0.488 0.591-0.669l1.4-1.1c0.235-0.188 0.505-0.327 0.794-0.408 0.289-0.082 0.592-0.105 0.89-0.068 0.299 0.038 0.587 0.134 0.847 0.285 0.26 0.15 0.488 0.351 0.669 0.591z"/>
   <path id="path260" d="m768.2 276.4 1.1 1.4c0.188 0.235 0.327 0.505 0.408 0.794 0.082 0.289 0.105 0.592 0.067 0.89-0.037 0.299-0.133 0.587-0.284 0.847-0.15 0.26-0.351 0.488-0.591 0.669l-1.4 1.1c-0.235 0.188-0.505 0.327-0.794 0.408-0.289 0.082-0.592 0.105-0.89 0.067-0.299-0.037-0.587-0.133-0.847-0.284-0.26-0.15-0.488-0.351-0.669-0.591l-1.1-1.4c-0.188-0.235-0.327-0.505-0.408-0.794-0.082-0.289-0.105-0.592-0.068-0.89 0.038-0.299 0.134-0.587 0.285-0.847 0.15-0.26 0.351-0.488 0.591-0.669l1.4-1.1c0.489-0.338 1.086-0.485 1.676-0.411 0.591 0.074 1.133 0.363 1.524 0.811z"/>
   <path id="path262" d="m770.6 256.2 1.1 1.4c0.188 0.235 0.327 0.505 0.408 0.794 0.082 0.289 0.105 0.592 0.068 0.89-0.038 0.299-0.134 0.587-0.285 0.847-0.15 0.26-0.351 0.488-0.591 0.669l-1.4 1.1c-0.235 0.188-0.505 0.327-0.794 0.408-0.289 0.082-0.592 0.105-0.89 0.068-0.299-0.038-0.587-0.134-0.847-0.285-0.26-0.15-0.488-0.351-0.669-0.591l-1.1-1.4c-0.188-0.235-0.327-0.505-0.408-0.794-0.082-0.289-0.105-0.592-0.068-0.89 0.038-0.299 0.134-0.587 0.285-0.847 0.15-0.26 0.351-0.488 0.591-0.669l1.4-1.1c0.235-0.188 0.505-0.327 0.794-0.408 0.289-0.082 0.592-0.105 0.89-0.068 0.299 0.038 0.587 0.134 0.847 0.285 0.26 0.15 0.488 0.351 0.669 0.591z"/>
   <path id="path264" d="m773 235.9 1.1 1.4c0.188 0.235 0.327 0.505 0.408 0.794 0.082 0.289 0.105 0.592 0.067 0.89-0.037 0.299-0.134 0.587-0.284 0.847s-0.351 0.488-0.591 0.669l-1.4 1.1c-0.235 0.188-0.505 0.327-0.794 0.408-0.289 0.082-0.592 0.105-0.89 0.067-0.299-0.037-0.587-0.133-0.847-0.284-0.26-0.15-0.488-0.351-0.669-0.591l-1.1-1.4c-0.188-0.235-0.327-0.505-0.408-0.794-0.082-0.289-0.105-0.592-0.068-0.89 0.038-0.299 0.134-0.587 0.285-0.847 0.15-0.26 0.351-0.488 0.591-0.669l1.4-1.1c0.235-0.188 0.505-0.327 0.794-0.408 0.289-0.082 0.592-0.105 0.89-0.068 0.299 0.038 0.586 0.134 0.847 0.285 0.26 0.15 0.488 0.351 0.669 0.591z"/>
   <path id="path266" d="m775.4 215.6 1.1 1.4c0.188 0.235 0.327 0.505 0.408 0.794 0.082 0.289 0.105 0.592 0.068 0.89-0.038 0.299-0.134 0.587-0.285 0.847-0.15 0.26-0.351 0.488-0.591 0.669l-1.4 1.1c-0.235 0.188-0.505 0.327-0.794 0.408-0.289 0.082-0.592 0.105-0.89 0.068-0.299-0.038-0.587-0.134-0.847-0.285-0.26-0.15-0.488-0.351-0.669-0.591l-1.1-1.4c-0.188-0.235-0.327-0.505-0.408-0.794-0.082-0.289-0.105-0.592-0.068-0.89 0.038-0.299 0.134-0.587 0.285-0.847 0.15-0.26 0.351-0.488 0.591-0.669l1.4-1.1c0.484-0.354 1.085-0.51 1.679-0.436 0.595 0.075 1.139 0.374 1.521 0.836z"/>
   <path id="path268" d="m786.5 278.6 1.1 1.4c0.188 0.235 0.327 0.505 0.408 0.794 0.082 0.289 0.105 0.592 0.067 0.89-0.037 0.299-0.134 0.587-0.284 0.847s-0.351 0.488-0.591 0.669l-1.4 1.1c-0.235 0.188-0.505 0.327-0.794 0.408-0.289 0.082-0.592 0.105-0.89 0.068-0.299-0.038-0.587-0.134-0.847-0.285-0.26-0.15-0.488-0.351-0.669-0.591l-1.1-1.4c-0.188-0.235-0.327-0.505-0.408-0.794-0.082-0.289-0.105-0.592-0.068-0.89 0.038-0.299 0.134-0.587 0.285-0.847 0.15-0.26 0.351-0.488 0.591-0.669l1.4-1.1c0.484-0.354 1.085-0.51 1.679-0.436 0.595 0.075 1.139 0.374 1.521 0.836z"/>
   <path id="path270" d="m788.9 258.3 1.1 1.4c0.188 0.235 0.327 0.505 0.408 0.794 0.082 0.289 0.105 0.592 0.068 0.89-0.038 0.299-0.134 0.587-0.285 0.847-0.15 0.26-0.351 0.488-0.591 0.669l-1.4 1.1c-0.235 0.188-0.505 0.327-0.794 0.408-0.289 0.082-0.592 0.105-0.89 0.067-0.299-0.037-0.587-0.133-0.847-0.284-0.26-0.15-0.488-0.351-0.669-0.591l-1.1-1.4c-0.188-0.235-0.327-0.505-0.408-0.794-0.082-0.289-0.105-0.592-0.068-0.89 0.038-0.299 0.134-0.587 0.285-0.847 0.15-0.26 0.351-0.488 0.591-0.669l1.4-1.1c0.484-0.354 1.085-0.51 1.679-0.436 0.595 0.075 1.139 0.374 1.521 0.836z"/>
   <path id="path272" d="m791.3 238 1.1 1.4c0.188 0.235 0.327 0.505 0.408 0.794 0.082 0.289 0.105 0.592 0.067 0.89-0.037 0.299-0.133 0.587-0.284 0.847-0.15 0.26-0.351 0.488-0.591 0.669l-1.4 1.1c-0.235 0.188-0.505 0.327-0.794 0.408-0.289 0.082-0.592 0.105-0.89 0.068-0.299-0.038-0.587-0.134-0.847-0.285-0.26-0.15-0.488-0.351-0.669-0.591l-1.1-1.4c-0.188-0.235-0.327-0.505-0.408-0.794-0.082-0.289-0.105-0.592-0.068-0.89 0.038-0.299 0.134-0.587 0.285-0.847 0.15-0.26 0.351-0.488 0.591-0.669l1.4-1.1c0.491-0.332 1.087-0.474 1.675-0.401 0.589 0.074 1.13 0.358 1.525 0.801z"/>
   <path id="path274" d="m793.6 217.7 1.1 1.4c0.188 0.235 0.327 0.505 0.408 0.794 0.082 0.289 0.105 0.592 0.068 0.89-0.038 0.299-0.134 0.587-0.285 0.847-0.15 0.26-0.351 0.488-0.591 0.669l-1.4 1.1c-0.235 0.188-0.505 0.327-0.794 0.408-0.289 0.082-0.592 0.105-0.89 0.068-0.299-0.038-0.587-0.134-0.847-0.285-0.26-0.15-0.488-0.351-0.669-0.591l-1.1-1.4c-0.188-0.235-0.327-0.505-0.408-0.794-0.082-0.289-0.105-0.592-0.068-0.89 0.038-0.299 0.134-0.587 0.285-0.847 0.15-0.26 0.351-0.488 0.591-0.669l1.4-1.1c0.489-0.338 1.086-0.484 1.676-0.411 0.591 0.074 1.133 0.363 1.524 0.811z"/>
   <path id="path276" d="m804.8 280.7 1.1 1.4c0.188 0.235 0.327 0.505 0.408 0.794 0.082 0.289 0.105 0.592 0.067 0.89-0.037 0.299-0.133 0.587-0.284 0.847-0.15 0.26-0.351 0.488-0.591 0.669l-1.4 1.1c-0.235 0.188-0.505 0.327-0.794 0.408-0.289 0.082-0.592 0.105-0.89 0.068-0.299-0.038-0.587-0.134-0.847-0.285-0.26-0.15-0.488-0.351-0.669-0.591l-1.1-1.4c-0.188-0.235-0.327-0.505-0.408-0.794-0.082-0.289-0.105-0.592-0.068-0.89 0.038-0.299 0.134-0.587 0.285-0.847 0.15-0.26 0.351-0.488 0.591-0.669l1.4-1.1c0.491-0.332 1.087-0.474 1.675-0.401 0.589 0.074 1.13 0.358 1.525 0.801z"/>
   <path id="path278" d="m807.1 260.5 1.1 1.4c0.188 0.235 0.327 0.505 0.408 0.794 0.082 0.289 0.105 0.592 0.068 0.89-0.038 0.299-0.134 0.587-0.285 0.847-0.15 0.26-0.351 0.488-0.591 0.669l-1.4 1.1c-0.235 0.188-0.505 0.327-0.794 0.408-0.289 0.082-0.592 0.105-0.89 0.068-0.299-0.038-0.587-0.134-0.847-0.285-0.26-0.15-0.488-0.351-0.669-0.591l-1.1-1.4c-0.188-0.235-0.327-0.505-0.408-0.794-0.082-0.289-0.105-0.592-0.068-0.89 0.038-0.299 0.134-0.587 0.285-0.847 0.15-0.26 0.351-0.488 0.591-0.669l1.4-1.1c0.234-0.19 0.503-0.332 0.793-0.415s0.593-0.107 0.892-0.069c0.3 0.037 0.588 0.135 0.848 0.287 0.261 0.152 0.487 0.355 0.667 0.597z"/>
   <path id="path280" d="m809.5 240.2 1.1 1.4c0.188 0.235 0.327 0.505 0.408 0.794 0.082 0.289 0.105 0.592 0.067 0.89-0.037 0.299-0.134 0.587-0.284 0.847s-0.351 0.488-0.591 0.669l-1.4 1.1c-0.235 0.188-0.505 0.327-0.794 0.408-0.289 0.082-0.592 0.105-0.89 0.068-0.299-0.038-0.587-0.134-0.847-0.285-0.26-0.15-0.488-0.351-0.669-0.591l-1.1-1.4c-0.188-0.235-0.327-0.505-0.408-0.794-0.082-0.289-0.105-0.592-0.068-0.89 0.038-0.299 0.134-0.587 0.285-0.847 0.15-0.26 0.351-0.488 0.591-0.669l1.4-1.1c0.234-0.189 0.504-0.329 0.794-0.411 0.289-0.083 0.592-0.106 0.891-0.069s0.587 0.135 0.847 0.286 0.488 0.353 0.668 0.594z"/>
   <path id="path282" d="m811.9 219.9 1.1 1.4c0.188 0.235 0.327 0.505 0.408 0.794 0.082 0.289 0.105 0.592 0.068 0.89-0.038 0.299-0.134 0.587-0.285 0.847-0.15 0.26-0.351 0.488-0.591 0.669l-1.4 1.1c-0.235 0.188-0.505 0.327-0.794 0.408-0.289 0.082-0.592 0.105-0.89 0.067-0.299-0.037-0.587-0.133-0.847-0.284-0.26-0.15-0.488-0.351-0.669-0.591l-1.1-1.4c-0.188-0.235-0.327-0.505-0.408-0.794-0.082-0.289-0.105-0.592-0.068-0.89 0.038-0.299 0.134-0.587 0.285-0.847 0.15-0.26 0.351-0.488 0.591-0.669l1.4-1.1c0.235-0.188 0.505-0.327 0.794-0.408 0.289-0.082 0.592-0.105 0.89-0.068 0.299 0.038 0.587 0.134 0.847 0.285 0.26 0.15 0.488 0.351 0.669 0.591z"/>
   <path id="path284" d="m823 282.9 1.1 1.4c0.188 0.235 0.327 0.505 0.408 0.794 0.082 0.289 0.105 0.592 0.067 0.89-0.037 0.299-0.134 0.587-0.284 0.847s-0.351 0.488-0.591 0.669l-1.4 1.1c-0.235 0.188-0.505 0.327-0.794 0.408-0.289 0.082-0.592 0.105-0.89 0.067-0.299-0.037-0.587-0.133-0.847-0.284-0.26-0.15-0.488-0.351-0.669-0.591l-1.1-1.4c-0.188-0.235-0.327-0.505-0.408-0.794-0.082-0.289-0.105-0.592-0.068-0.89 0.038-0.299 0.134-0.587 0.285-0.847 0.15-0.26 0.351-0.488 0.591-0.669l1.4-1.1c0.234-0.189 0.504-0.329 0.794-0.412 0.289-0.082 0.592-0.105 0.891-0.068s0.587 0.135 0.847 0.286 0.488 0.353 0.668 0.594z"/>
   <path id="path286" d="m825.4 262.6 1.1 1.4c0.188 0.235 0.327 0.505 0.408 0.794 0.082 0.289 0.105 0.592 0.068 0.89-0.038 0.299-0.134 0.587-0.285 0.847-0.15 0.26-0.351 0.488-0.591 0.669l-1.4 1.1c-0.235 0.188-0.505 0.327-0.794 0.408-0.289 0.082-0.592 0.105-0.89 0.068-0.299-0.038-0.587-0.134-0.847-0.285-0.26-0.15-0.488-0.351-0.669-0.591l-1.1-1.4c-0.188-0.235-0.327-0.505-0.408-0.794-0.082-0.289-0.105-0.592-0.068-0.89 0.038-0.299 0.134-0.587 0.285-0.847 0.15-0.26 0.351-0.488 0.591-0.669l1.4-1.1c0.484-0.354 1.085-0.51 1.679-0.436 0.595 0.075 1.139 0.374 1.521 0.836z"/>
   <path id="path288" d="m827.8 242.3 1.1 1.4c0.188 0.235 0.327 0.505 0.408 0.794 0.082 0.289 0.105 0.592 0.067 0.89-0.037 0.299-0.133 0.587-0.284 0.847-0.15 0.26-0.351 0.488-0.591 0.669l-1.4 1.1c-0.235 0.188-0.505 0.327-0.794 0.408-0.289 0.082-0.592 0.105-0.89 0.068-0.299-0.038-0.587-0.134-0.847-0.285-0.26-0.15-0.488-0.351-0.669-0.591l-1.1-1.4c-0.188-0.235-0.327-0.505-0.408-0.794-0.082-0.289-0.105-0.592-0.068-0.89 0.038-0.299 0.134-0.587 0.285-0.847 0.15-0.26 0.351-0.488 0.591-0.669l1.4-1.1c0.484-0.354 1.085-0.51 1.679-0.436 0.595 0.075 1.139 0.374 1.521 0.836z"/>
   <path id="path290" d="m830.2 222 1.1 1.4c0.188 0.235 0.327 0.505 0.408 0.794 0.082 0.289 0.105 0.592 0.067 0.89-0.037 0.299-0.133 0.587-0.284 0.847-0.15 0.26-0.351 0.488-0.591 0.669l-1.4 1.1c-0.235 0.188-0.505 0.327-0.794 0.408-0.289 0.082-0.592 0.105-0.89 0.068-0.299-0.038-0.587-0.134-0.847-0.285-0.26-0.15-0.488-0.351-0.669-0.591l-1.1-1.4c-0.188-0.235-0.327-0.505-0.408-0.794-0.082-0.289-0.105-0.592-0.068-0.89 0.038-0.299 0.134-0.587 0.285-0.847 0.15-0.26 0.351-0.488 0.591-0.669l1.4-1.1c0.491-0.332 1.087-0.474 1.675-0.401 0.589 0.074 1.13 0.358 1.525 0.801z"/>
  </g>
  <path id="path292" d="m771.7 236.8c-0.1 7-12.1 19.3-22.3 20.3-10.2 1.9-15.6-7.6-15.6-15.5s8.9-15.4 19.3-16.4c9.8-1.1 18.7 4.5 18.6 11.6z" fill="#fff"/>
  <path id="path294" d="m740.2 221.6-1.5 12.8s-3.6 11.4 7.7 12.8 19-9.6 19.4-13.4l-1.5-28.7c0.1 0.1-20.3 2-24.1 16.5z" fill="#f4c2c9"/>
  <path id="path296" d="m754.1 228.1c-4.6 1.4-9.8 1.2-14.8 1.1l-0.5 4.5c2.805 0.241 5.628-0.135 8.271-1.102 2.644-0.968 5.043-2.503 7.029-4.498z" fill="#e2c26e"/>
  <path id="path298" d="m739.1 339.1h-52.7c-1.158 4e-3 -2.28-0.407-3.16-1.16-0.881-0.752-1.463-1.795-1.64-2.94l-5.7-36.3c-0.089-0.547-0.057-1.107 0.093-1.641 0.151-0.533 0.417-1.027 0.779-1.447 0.362-0.419 0.812-0.754 1.318-0.981s1.056-0.34 1.61-0.331h52.7c1.158-4e-3 2.28 0.407 3.16 1.16 0.881 0.752 1.463 1.795 1.64 2.94l5.7 36.3c0.089 0.547 0.057 1.107-0.093 1.641-0.151 0.533-0.417 1.027-0.779 1.447-0.363 0.419-0.812 0.754-1.318 0.981s-1.056 0.34-1.61 0.331z" fill="#22242e"/>
  <path id="path300" d="m706.1 302.5c0.884 0 1.6-0.716 1.6-1.6s-0.716-1.6-1.6-1.6-1.6 0.716-1.6 1.6 0.716 1.6 1.6 1.6z" fill="#d7e7ff"/>
  <path id="path302" d="m750.8 316.8s-4-4.5-6.4-6c-1.809-1.054-3.718-1.924-5.7-2.6l-0.1 8.5s9.7 1.6 12.2 0.1z" fill="#f4c2c9"/>
  <path id="path304" d="m756.3 316.2c-3.4 0.4-5.5 0.6-5.5 0.6-1.49-1.145-3.061-2.181-4.7-3.1-2.4-1.3-7-0.7-11.2-0.9s-8.8-0.4-13.5-0.8c-3.6-0.3-6.9-0.7-7.3 0.8-0.6 2.4 4.8 3 4.8 3s-5.1 0-6.3 0.6c-2.5 1.2-0.2 3.2-0.2 3.2-3.6 1.7-0.3 4.3-0.3 4.3s-1.9 0.8-0.5 3c2.9 4.7 17.6 9 20.9 9h14.8s3.8 0.3 10.2 0.9c1.957-6.803 1.534-14.07-1.2-20.6z" fill="#f4c2c9"/>
  <path id="path306" d="m764 315.4c-2.9 0.3-5.5 0.6-7.6 0.8 2.702 6.541 3.09 13.808 1.1 20.6 2.1 0.2 4.5 0.4 7.1 0.6 2.5-7.2 3.1-14.8-0.6-22z" fill="#22242e"/>
  <path id="path308" d="m789.8 294.5c4 9.1 7.8 17.2 7.8 17.2-3.6 0.5-21.1 2.4-33.7 3.7 3.7 7.3 3.1 14.8 0.6 22.1 7.1 0.6 15.9 1.4 25.6 2.3 24.2 2.2 39.7 0.9 43.1-12.1 2.9-11.1-0.7-21.6-12.4-48.9-10.6 4.6-21.4 9.2-31 15.7z" fill="#f4c2c9"/>
  <path id="path310" d="m820.9 278.8c-10.7 4.6-21.5 9.2-31.1 15.7 0.3 0.6 0.6 1.3 0.9 1.9 9.3-8 21.1-9.9 33-11.1-0.9-2.1-1.8-4.2-2.8-6.5z" fill="#e2c26e"/>
  <path id="path312" d="m821.7 271.1c-14.1-32.5-23.4-32-23.4-32-16.6-6.1-23.2 16.5-17.1 35 1.2 3.8 4 9.7 6.7 15.8 9.6-7.8 23-12.8 34.9-16.4-0.448-0.76-0.817-1.564-1.1-2.4z" fill="#6d74af"/>
  <path id="path314" d="m787.8 289.9c0.7 1.5 1.4 3.1 2 4.6 9.5-6.5 24.1-11.9 34.8-16.5-0.6-1.5-1.3-3-2-4.6-11.8 3.7-25.3 8.6-34.8 16.5z" fill="#fff"/>
  <g stroke="#e2c26e" stroke-linecap="round" stroke-linejoin="round" stroke-width="1.8">
   <path id="path316" d="m719 315.8s6.6 0.9 8.6 1.3c2.088 0.31 4.191 0.51 6.3 0.6"/>
   <path id="path318" d="m712.4 319.6s7.1 1.7 9.8 2.3 10.9 1.5 10.9 1.5"/>
   <path id="path320" d="m712.1 323.9c2.567 1.382 5.243 2.552 8 3.5 3.736 1.077 7.546 1.879 11.4 2.4"/>
   <path id="path322" d="m797.6 311.6s12-1.9 14.9-1.7"/>
  </g>
  <path id="path324" d="m762.2 328.7c2.872 0 5.2-2.328 5.2-5.2s-2.328-5.2-5.2-5.2-5.2 2.328-5.2 5.2 2.328 5.2 5.2 5.2z" fill="#fff"/>
  <path id="path326" d="m727.1 180.5c-1.501 1.528-2.592 3.412-3.169 5.475-0.577 2.064-0.622 4.239-0.131 6.325 1.5 7.6 12.2 14.9 12.2 14.9s4.7-33.6-8.9-26.7z" fill="#22242e"/>
  <path id="path328" d="m728.1 183.6s-1.3 19.2-1.6 26.8 2.7 17.9 13.8 19.7 22.4-3.5 26.1-17.9 3.3-30.9-9.3-33.1-29 4.5-29 4.5z" fill="#f4c2c9"/>
  <path id="path330" d="m762.7 206.4c0.1-2.612-0.753-5.171-2.4-7.2-1.676-2.245-2.524-5.001-2.4-7.8 0 0-2.1-10.8-17.8-0.5-6.6 4.3-22.1-1.3-19.3-13.5 4.3-18.8 27.9-10.8 34.7-9.6s13.5 1.2 14.7 8.2c0 0 10.6 4.5 7.5 16.9-4.1 16.2-12.3 33-12.3 33s-0.9-9.2-2.7-19.5z" fill="#22242e"/>
  <path id="path332" d="m761.1 206.3s2.3-7.7 8.4-6 3.1 13.6-5.3 15.1" fill="#f4c2c9"/>
  <g fill="#22242e">
   <path id="path334" d="m730.3 204c-0.343-5e-3 -0.671-0.144-0.914-0.386-0.242-0.243-0.381-0.571-0.386-0.914v-1.2c5e-3 -0.343 0.144-0.671 0.386-0.914 0.243-0.242 0.571-0.381 0.914-0.386 0.343 5e-3 0.671 0.144 0.914 0.386 0.242 0.243 0.381 0.571 0.386 0.914v1.2c0.013 0.174-0.011 0.349-0.071 0.513-0.061 0.164-0.156 0.313-0.28 0.436-0.123 0.124-0.272 0.219-0.436 0.28-0.164 0.06-0.339 0.085-0.513 0.071z"/>
   <path id="path336" d="m745.5 204c-0.343-5e-3 -0.671-0.144-0.914-0.386-0.242-0.243-0.381-0.571-0.386-0.914v-1.2c5e-3 -0.343 0.144-0.671 0.386-0.914 0.243-0.242 0.571-0.381 0.914-0.386 0.343 5e-3 0.671 0.144 0.914 0.386 0.242 0.243 0.381 0.571 0.386 0.914v1.2c-5e-3 0.343-0.144 0.671-0.386 0.914-0.243 0.242-0.571 0.381-0.914 0.386z"/>
   <path id="path338" d="m727.8 196.7c0.1-1.1 1.2-3.4 3.3-3.3 2.9 0.2 4 2.1 3.7 3.3-0.3 1-2.2 0.3-3.7 0.2-1.7-0.2-3.4 0.7-3.3-0.2z"/>
   <path id="path340" d="m736.4 202.2c0.432 1.121 0.467 2.356 0.1 3.5-0.155 0.581-0.356 1.15-0.6 1.7-0.1 0.3-0.3 0.5-0.4 0.8-0.15 0.224-0.283 0.458-0.4 0.7-0.201 0.336-0.298 0.724-0.28 1.115s0.15 0.768 0.38 1.085c0.279 0.412 0.616 0.783 1 1.1 0.399 0.35 0.881 0.591 1.4 0.7-0.572 0.235-1.206 0.27-1.8 0.1-0.637-0.195-1.22-0.538-1.7-1-0.52-0.476-0.871-1.107-1-1.8-0.089-0.374-0.1-0.763-0.031-1.142s0.216-0.739 0.431-1.058c0.117-0.265 0.287-0.504 0.5-0.7 0.191-0.196 0.328-0.437 0.4-0.7 0.3-0.5 0.5-0.9 0.8-1.4 0.477-0.967 0.878-1.97 1.2-3z"/>
   <path id="path342" d="m751.5 196.5c-0.024-0.434-0.134-0.859-0.324-1.25-0.189-0.392-0.454-0.742-0.78-1.03-0.325-0.288-0.704-0.509-1.116-0.65-0.411-0.141-0.846-0.198-1.28-0.17-3.1 0.2-4.5 1.9-4.1 3.4 0.3 1.2 2.5 0.2 4.1 0 1.8-0.3 3.5 0.9 3.5-0.3z"/>
   <path id="path344" d="m739.2 219.1c-0.172-0.658-0.305-1.326-0.4-2-0.024-0.225 0-0.453 0.069-0.669 0.07-0.216 0.183-0.415 0.334-0.584 0.15-0.169 0.335-0.306 0.541-0.4s0.429-0.144 0.656-0.147c1.471-0.077 2.922-0.38 4.3-0.9 3.8-1.4 4.3 1.2 3.2 3.8-2.8-0.6-5.9 0.3-8.7 0.9z"/>
  </g>
  <path id="path346" d="m748 218.3c-1 2.2-3.2 4.5-5.8 4-0.744-0.176-1.422-0.562-1.954-1.111-0.531-0.549-0.894-1.24-1.046-1.989 2.8-0.7 5.9-1.6 8.8-0.9z" fill="#e864cb"/>
  <path id="path348" d="m769.7 204.9c-0.681-0.153-1.394-0.046-2 0.3l-0.3 0.6c-0.1 0.2-0.1 0.7-0.2 1-0.098 0.846-0.266 1.682-0.5 2.5-0.196 0.528-0.591 0.959-1.1 1.2-0.22 0.099-0.459 0.151-0.7 0.151s-0.48-0.052-0.7-0.151c0.342-0.215 0.647-0.485 0.9-0.8 0.171-0.267 0.242-0.586 0.2-0.9-0.013-0.801 0.021-1.603 0.1-2.4 0.087-0.479 0.221-0.948 0.4-1.4 0.1-0.276 0.259-0.526 0.466-0.734 0.208-0.207 0.458-0.366 0.734-0.466 0.523-0.151 1.077-0.151 1.6 0 0.392 0.34 0.76 0.708 1.1 1.1z" fill="#22242e"/>
 </g>
 <g class="animateSvg1" id="g1661">
  <path id="path358" d="m446.1 412.5s16.9 8.2 37.5 29.7c22.1 23.2 27.5 37.1 24.5 50.3-2.4 10.6-2.6 4.6-24.5 6.1s-42.9 1.1-50.8 0.4-50.4-11.8-64.1-25-9.8-36.6 1-59.6 73.2-7.7 76.4-1.9z" fill="#ffca29"/>
  <path id="path360" d="m470.3 483.1s4.9-11.8 15.5-13.3 25.4 5.4 21.6 28.6c-4.5 27.5-49.3 109.3-50 112.6s5.1 11.8 10.5 16.1 26.9 13.4 22.9 22.8c0 0-24 3.4-37.8 1.7s-16.7-7.8-18.9-6.8-4.8-1.9-5.3-3.1 4.6-27.4 4.6-27.4 19.9-72.7 24.2-90.1 12.7-41.1 12.7-41.1z" fill="#f4c2c9"/>
  <path id="path362" d="m490.8 650s-24 3.4-37.8 1.7-16.7-7.8-18.9-6.8-4.8-1.9-5.3-3.1c-0.2-0.5 0.4-4.5 1.3-9.3l26.4 2.6c3.156 0.366 6.344 0.366 9.5 0 3.8-0.4 8.1-1.7 11.3-2.2 7.6 4.7 16.2 10.8 13.5 17.1z" fill="#6d74af"/>
  <path id="path364" d="m449.8 437.7c9.478 6.313 18.114 13.807 25.7 22.3" stroke="#5d88f8" stroke-linecap="round" stroke-linejoin="round" stroke-width="1.8"/>
  <path id="path366" d="m436.5 474s6.9-9.3 18.3-7.8 20.3 11.4 17.3 30.2-21.8 103.9-23.3 110.8 0.6 13.4 5.7 22.8 14.3 16.3 13.1 23.5c0 0-4.9 1.7-18.1 1.7s-25.2-0.5-26.2-1.2-3.7-5.7-5.7-6.4-4-0.2-4.3-1.9 6.4-28.5 7.2-35.4c4.8-43.2-3.4-117.4 16-136.3z" fill="#f4c2c9"/>
  <path id="path368" d="m467.7 653.4s-5 1.7-18.1 1.7-25.2-0.5-26.2-1.2-3.7-5.7-5.7-6.4-4-0.3-4.3-1.9c-0.2-0.9 2-10.3 4-19.5 2.1 0.7 7 2.5 7.9 3.9 1.1 1.8 2.8 7.6 6.3 9.5 3.3 1.7 20-5.9 28.7-1.4 4.2 5.6 8.2 10.4 7.4 15.3z" fill="#6d74af"/>
  <path id="path370" d="m471.5 480.7c1.288 5.101 1.492 10.415 0.6 15.6-3 18.8-21.8 103.9-23.3 110.8s0.6 13.4 5.7 22.8c0.913 1.728 1.985 3.369 3.2 4.9" stroke="#e2c26e" stroke-linecap="round" stroke-linejoin="round" stroke-width="1.8"/>
  <path id="path372" d="m439.4 313.2s6-1.9 20.4 21.2 13.9 21.8 13.9 21.8 39-10.5 42.7-10.4 9.8 11.9 2 18.6c-6 5.2-40.4 21.9-51.2 22-6.8 0-12.6-3.3-29.4-28.2-18.4-27-3.9-47.5 1.6-45z" fill="#b0c4d7"/>
  <path id="path374" d="m473.7 356.3s-9.2 1.8-12.2 9" stroke="#6d74af" stroke-linecap="round" stroke-linejoin="round" stroke-width="1.8"/>
  <path id="path376" d="m532 338.5c0.194-2.196 0.194-4.404 0-6.6-0.336-3.244-0.938-6.455-1.8-9.6 0 0-2.2-1.1-2.7 2.2s-1.8 10.7-1.8 10.7 3.2 6.6 6.3 3.3z" fill="#f4c2c9"/>
  <path id="path378" d="m516.8 380.3h-39.5c-0.59 9e-3 -1.174-0.112-1.712-0.356-0.537-0.243-1.014-0.602-1.396-1.051s-0.66-0.977-0.815-1.547c-0.154-0.569-0.18-1.165-0.077-1.746l9.6-63.1c0.226-1.48 0.976-2.83 2.114-3.803s2.589-1.504 4.086-1.497h39.5c0.59-9e-3 1.174 0.112 1.712 0.356 0.537 0.243 1.014 0.602 1.396 1.051s0.66 0.977 0.815 1.547c0.154 0.569 0.18 1.165 0.077 1.746l-9.6 63.1c-0.212 1.487-0.958 2.845-2.099 3.821-1.142 0.975-2.6 1.501-4.101 1.479z" fill="#22242e"/>
  <path id="path380" d="m515.3 309.2h-12.5c-0.253 0.01-0.504-0.038-0.735-0.14-0.232-0.102-0.437-0.255-0.601-0.447-0.163-0.193-0.281-0.42-0.344-0.665-0.063-0.244-0.07-0.5-0.02-0.748 0.123-0.551 0.425-1.047 0.86-1.409 0.434-0.361 0.975-0.569 1.54-0.591h12.5c0.253-0.01 0.504 0.038 0.735 0.14 0.232 0.102 0.437 0.255 0.601 0.447 0.163 0.193 0.281 0.42 0.344 0.665 0.063 0.244 0.07 0.5 0.02 0.748-0.137 0.545-0.443 1.032-0.874 1.391-0.431 0.36-0.966 0.573-1.526 0.609z" fill="#ffca29"/>
  <path id="path382" d="m529.5 332.6s-14.2-0.9-16.6-0.6-3.1 2.5-0.6 3.5c1.9 0.8 8.6 1.9 8.6 1.9s-13.6 2.4-15.1 3.7-0.7 2.9 0.6 3.3c0 0-3.2 1.7-0.9 3.8s10.7 2.9 10.7 2.9-7.7-1.1-7.9 0.9 10.2 4.2 14.3 3.7c6.1-0.8 5.5-2.6 6.1-4.3s2.4-10 3.2-12.9c0.1 0 0.3-4.3-2.4-5.9z" fill="#f4c2c9"/>
  <g stroke="#e2c26e" stroke-linecap="round" stroke-linejoin="round" stroke-width="1.8">
   <path id="path384" d="m520.2 337.5s8 1.7 8.8 1.6"/>
   <path id="path386" d="m506.4 344.5c1.8 0.434 3.649 0.635 5.5 0.6 4 0.1 15.8-1.2 15.8-1.2"/>
   <path id="path388" d="m514.3 350.9s8.1 0.8 11.5 0"/>
  </g>
  <path id="path390" d="m439.7 334.9s9.9-12.5 4.1-33.2c-3.2-11.3-10.8-17.7-8.1-30.8 2.9-14.7 8.1-16.4-7.3-21.3 0 0-22.7-6.1-36.7 4.2-9 6.6-9.4 12.8-9.1 25.5 0.2 9.5-10.5 0.2-13.8 17.9-1.8 9.6-2.1 7.8-10.9 15.7-12.8 11.5 0.6 50.8 32.5 55.3s47.4-17.7 49.3-33.3z" fill="#22242e"/>
  <path id="path392" d="m364.8 327.2c0.114-3.154 1.205-6.195 3.122-8.703 1.916-2.508 4.564-4.359 7.578-5.297 8.526-2.611 17.311-4.288 26.2-5 20.6-1.7 35.3 2 37.1 4s2.4 12.3 3.9 16.6 12.4 14.1 10.2 25.8-6.3 17.6-7.6 22.8-2.4 11.9-2.2 16 5.9 19.5 6.5 22.8-10.8 13.5-34.3 14.5c-19.4 0.8-39.3-5.6-46.5-10.4-0.885-0.598-1.549-1.469-1.892-2.48s-0.346-2.107-8e-3 -3.12c1.9-6 6.1-20.1 6.7-24.9 0.7-6.3-5.4-27.8-7.4-42.9-1.077-6.509-1.545-13.104-1.4-19.7z" fill="#6d74af"/>
  <path id="path394" d="m390.2 306.6s-1.8 11.7 6.3 12.2 4.6 2.5 6.4 6.6 7.3 2.6 8 2c4.2-3.3 5.9 2.8 10 2.1s2.5-4.1 4.6-4.9 6.4 0 4.8-5.4c-1.7-5.9 4.7-1.2 1.4-8.3-3.8-8.3-22.9-7.4-34.4-4.9s-6.9-1.4-7.1 0.6z" fill="#fff"/>
  <path id="path396" d="m423.6 300.3s0.3 9.5 0.7 11.7 3.7 12.2-7 11.7c-6-0.3-10.5-3.7-13.3-6.6-1.079-1.148-1.918-2.5-2.468-3.977-0.549-1.477-0.798-3.049-0.732-4.623l0.9-16.6c0-0.1 19.6-2.9 21.9 8.4z" fill="#f4c2c9"/>
  <path id="path398" d="m408.3 297.2c0.7 8.9 7.9 13 15.8 13.7-0.2-1.9-0.3-5.2-0.4-7.7-5 3.5-11.8-1.2-15.4-6z" fill="#e2c26e"/>
  <path id="path400" d="m432.6 262.2c-13.9-2.9-29.2 0.3-42.4 6.1v0.3c0.6 22.9 8.2 35.4 21.2 37.7s22.6-5.8 21.4-20.3c-0.507-7.924-0.573-15.869-0.2-23.8z" fill="#f4c2c9"/>
  <path id="path402" d="m390.2 268.2c13.2-5.8 28.5-9 42.4-6.1 0.1-2.2 0.2-3.4 0.2-3.4" fill="#f4c2c9"/>
  <path id="path404" d="m429.8 268.2c-5.3-2.5-6.3 6.1-18.1 2.1-3.1-1.1-6.5-4.6-7.3 3-0.4 3.6 1.1 7.1-3.7 13.9-3.9 5.6 10.5 22.7-8.9 29.4-13.3 4.6-20.3-5.2-27.8 6.4-5 7.7 4.5-15.9 22.3-27 8.4-5.2 1.5-21.5 1-25.3s1.7-11.5 14.4-14.5 26.6-13.8 35.5-5c6.2 6.1 5 22.7-7.4 17z" fill="#22242e"/>
  <path id="path406" d="m380.7 319.8c-1.231-1.12-2.706-1.937-4.309-2.384-1.603-0.448-3.288-0.514-4.921-0.193s-3.168 1.019-4.483 2.04c-1.314 1.02-2.372 2.335-3.087 3.837-3.4 7.2-9.1 19.4-14.7 32.7-8.9 21.3-12.6 41.8 0 48.5s29.7-6.7 38.6-17.3 21.2-27 21.2-27-1.9-12.9-11-13.6l-17.1 12.9s4-9.2 5.4-13.9 1.2-19.1-5.4-25.5c-0.076-0.011-0.146-0.046-0.2-0.1z" fill="#b0c4d7"/>
  <path id="path408" d="m380.9 359.3s-24 15.1-28.2 23" stroke="#6d74af" stroke-linecap="round" stroke-linejoin="round" stroke-width="1.8"/>
  <path id="path410" d="m397.9 346.4s16-10.5 17.3-11 11.1 1.7 12.1 2.2 3 5.3 3 5.3 8 3.8 8.2 4.5-1.4 2.8-1.9 3.1-2.7 0.4-3.1 0.5-4.5 6.7-6.5 8.3-11.5 0.2-12.9 0.2-7.9 2-7.9 2-4.2-0.9-7.3-6-1-9.1-1-9.1z" fill="#f4c2c9"/>
  <path id="path412" d="m445.9 345.1 2.8 2c0.091 0.059 0.16 0.147 0.196 0.249 0.036 0.103 0.037 0.214 2e-3 0.317-0.034 0.103-0.102 0.192-0.192 0.252-0.09 0.061-0.198 0.089-0.306 0.082l-3.4 0.1-35.6-10.6c-0.231-0.043-0.452-0.132-0.648-0.261-0.197-0.13-0.365-0.297-0.496-0.493-0.13-0.196-0.22-0.416-0.264-0.647s-0.041-0.469 8e-3 -0.699c0.174-0.436 0.513-0.787 0.944-0.974s0.918-0.197 1.356-0.026z" fill="#fff"/>
  <path id="path414" d="m429.8 343.7s7.3-0.5 7.7-1.3c0.228-0.526 0.262-1.115 0.098-1.664-0.165-0.549-0.518-1.022-0.998-1.336-1.1-0.9-12.7-1.4-15.2-1.6-2.845-0.259-5.688 0.522-8 2.2-2.1 2 9.2 9 16.4 3.7z" fill="#f4c2c9"/>
  <g stroke-linecap="round" stroke-linejoin="round" stroke-width="1.8">
   <path id="path416" d="m433.6 351s-5.5-0.8-6.2-0.8h-3" stroke="#e2c26e"/>
   <path id="path418" d="m430.4 355.4s-3.8 0.3-5.2 0.5c-0.765 0.063-1.535 0.063-2.3 0" stroke="#e2c26e"/>
   <path id="path420" d="m419.5 294.9c-1.239-0.011-2.463-0.273-3.598-0.772-1.135-0.498-2.156-1.222-3.002-2.128" stroke="#22242e"/>
  </g>
  <g fill="#22242e">
   <path id="path422" d="m428.3 284.6c0.447-0.013 0.872-0.196 1.188-0.512s0.499-0.741 0.512-1.188v-1c-0.013-0.447-0.196-0.872-0.512-1.188s-0.741-0.499-1.188-0.512c-0.447 0.013-0.872 0.196-1.188 0.512s-0.499 0.741-0.512 1.188v1c-1e-3 0.224 0.042 0.445 0.127 0.652s0.21 0.395 0.368 0.553 0.346 0.283 0.553 0.368 0.428 0.128 0.652 0.127z"/>
   <path id="path424" d="m412.7 284.6c0.447-0.013 0.872-0.196 1.188-0.512s0.499-0.741 0.512-1.188v-1c-0.013-0.447-0.196-0.872-0.512-1.188s-0.741-0.499-1.188-0.512c-0.447 0.013-0.872 0.196-1.188 0.512s-0.499 0.741-0.512 1.188v1c0.013 0.447 0.196 0.872 0.512 1.188s0.741 0.499 1.188 0.512z"/>
   <path id="path426" d="m422.6 291.3c0.839-0.269 1.573-0.793 2.1-1.5 0.472-0.526 0.754-1.195 0.8-1.9 0.016-0.173-0.019-0.346-0.1-0.5l-0.2-0.7c-0.1-0.5-0.2-0.9-0.3-1.5-0.117-0.966-0.083-1.944 0.1-2.9 0.512 0.825 0.948 1.695 1.3 2.6l0.5 1.2 0.3 0.7c0.114 0.288 0.181 0.591 0.2 0.9-0.012 0.633-0.184 1.252-0.5 1.8-0.294 0.494-0.706 0.906-1.2 1.2-0.462 0.285-0.969 0.488-1.5 0.6-0.222 0.147-0.483 0.225-0.75 0.225s-0.528-0.078-0.75-0.225z"/>
   <path id="path428" d="m407.9 274.2c0.1-1 1.3-1.6 3.2-2.1 4-0.5 5.6 1.1 5 3.1-0.5 1.6-3.3 0.1-5.1 0.1-1.5-0.1-3.1-0.2-3.1-1.1z"/>
   <path id="path430" d="m432.1 274.1c0-1-1-1.5-2.4-2.1-3-0.6-4.3 1-3.9 2.8 0.4 1.5 2.5 0.2 3.9 0.2 1.2 0.1 2.5 0 2.4-0.9z"/>
  </g>
 </g>
 <g class="animateSvg2" id="PersonWtihLaptop">
  <g id="g1583">
   <path id="path350" d="m344.1 245.6h-41.7l-4.3 2.8c-0.309 0.205-0.668 0.324-1.039 0.342s-0.74-0.064-1.068-0.239c-0.327-0.174-0.602-0.433-0.795-0.751-0.192-0.317-0.295-0.681-0.298-1.052v-29.5c-3e-3 -0.71 0.135-1.413 0.406-2.07 0.27-0.656 0.668-1.252 1.17-1.754s1.098-0.9 1.754-1.17c0.657-0.271 1.36-0.409 2.07-0.406h43.7c0.71-3e-3 1.413 0.135 2.07 0.406 0.656 0.27 1.252 0.668 1.754 1.17s0.9 1.098 1.17 1.754c0.271 0.657 0.409 1.36 0.406 2.07v23c0.023 0.707-0.097 1.411-0.354 2.07s-0.645 1.259-1.141 1.764c-0.495 0.505-1.088 0.904-1.742 1.173s-1.356 0.403-2.063 0.393z" fill="#f4c2c9"/>
   <g stroke="#22242e" stroke-linecap="round" stroke-linejoin="round" stroke-width="1.8">
    <path id="path352" class="message-lines" d="m308.4 221.3h27.8"/>
    <path id="path354" class="message-lines" d="m308.4 228.9h27.8"/>
    <path id="path356" class="message-lines" d="m308.4 236.5h16"/>
   </g>
  </g>
  <g fill="#22242e">
   <path id="path432" d="m287.5 286.9c-0.143 4.353 0.158 8.709 0.9 13 0.181 0.938 0.031 1.909-0.425 2.748s-1.19 1.494-2.075 1.852c-0.623 0.263-1.298 0.382-1.973 0.347-0.675-0.034-1.334-0.221-1.927-0.547-3.2-2 1.8-23.3 5.5-17.4z"/>
   <path id="path434" d="m242.4 294.8s0.1 7 0.7 11.5c0.078 0.578 0.276 1.133 0.581 1.629 0.306 0.496 0.712 0.923 1.192 1.253 0.481 0.33 1.025 0.555 1.598 0.662 0.573 0.106 1.162 0.091 1.729-0.044 0.241-0.082 0.475-0.182 0.7-0.3 1.8-1.2 0.5-17.6 0.5-17.6s-6.6 0.1-7 2.9z"/>
   <path id="path436" d="m238.1 280c-0.225 6.827-1.859 13.534-4.8 19.7-0.239 0.539-0.3 1.139-0.174 1.715 0.126 0.575 0.432 1.095 0.874 1.485h0.1c0.311 0.261 0.677 0.446 1.071 0.543s0.804 0.102 1.2 0.015 0.767-0.263 1.084-0.516 0.572-0.575 0.745-0.942c2-4 5.8-12.8 5.5-22.1-0.3-12.5-5.6 0.1-5.6 0.1z"/>
  </g>
  <path id="path438" d="m280.3 654c0.1 1.5-2.5 4.3-7.7 4.3h-20.8c-18.2 0-24.7-0.9-24-6.5 0.433-3.27 0.264-6.591-0.5-9.8 0 0-2.2-1.1-2.6-2s0-1.9 1.7-10.4c0.1-0.5 0.2-1.1 0.3-1.7 1.5-8.8 2.8-23 2.8-23 3.9-1.9 31.4 3.3 31.4 3.3s-2.5 10.6-1.2 15.7c0.053 0.237 0.12 0.471 0.2 0.7 1.6 4.9 20.3 28 20.4 29.4z" fill="#b28d93"/>
  <path id="path440" d="m259.3 620.7c0.099-4.211 0.635-8.4 1.6-12.5 0 0-27.5-5.2-31.4-3.3 0 0-0.3 3.2-0.8 7.6 8.4 7.8 19.8 9.7 30.6 8.2z" fill="#896068"/>
  <path id="path442" d="m270.1 639.9c-6.3-3.1-18.2-3.4-28.2-0.7-0.519 0.15-1.063 0.194-1.599 0.128-0.536-0.065-1.053-0.239-1.52-0.51-0.468-0.271-0.875-0.634-1.198-1.067-0.324-0.432-0.556-0.926-0.683-1.451-0.875-2.78-1.544-5.621-2-8.5-0.4-3.3-4.5-2.7-7.3-5.8-0.4 2.7-0.8 5.4-1.2 7.5-1.7 8.5-2 9.5-1.7 10.4s2.6 2 2.6 2c0.697 3.218 0.866 6.528 0.5 9.8-0.7 5.6 5.8 6.5 24 6.5h20.8c5.2 0 7.8-2.8 7.7-4.3-0.1-0.6-5.1-7.2-10.2-14z" fill="#22242e"/>
  <path id="path444" d="m326.4 604.9s-0.2 16.1-1.3 24.7-1.3 9.5-0.9 10.4 2.8 2 2.8 2c0.974 3.171 1.38 6.488 1.2 9.8-0.3 5.6 6.3 6.5 24.5 6.5h20.8c5.2 0 7.6-2.8 7.4-4.3s-20.7-24.5-22.7-29.4-0.2-16.5-0.2-16.5-27.8-5.1-31.6-3.2z" fill="#b28d93"/>
  <path id="path446" d="m357.3 616.5c0.08-2.777 0.314-5.548 0.7-8.3 0 0-27.9-5.2-31.6-3.3 0 0-0.1 5.1-0.3 11 9.2 6.4 20.8 4.1 31.2 0.6z" fill="#896068"/>
  <g fill="#22242e">
   <path id="path448" d="m368.6 638.6c-10.7-2-22.4 3-32.1-1.4-2.3-0.6-3.3-5.4-4.9-8.4-1.3-2.5-3.1-3.3-6-4.7-0.1 2-0.3 3.9-0.5 5.5-1 8.5-1.3 9.5-0.9 10.4s2.8 2 2.8 2c0.974 3.171 1.38 6.488 1.2 9.8-0.3 5.6 6.3 6.5 24.5 6.5h20.8c5.2 0 7.6-2.8 7.4-4.3-0.1-0.8-6.3-8.1-12.3-15.4z"/>
   <path id="path450" d="m215 415.1s-8.2 8.4-8.3 27.8c-0.1 23.1 14.6 39.7 38.7 39.7s72-0.7 89.1 0 14.8-37 2.2-48.6-110.2-33-121.7-18.9z"/>
   <path id="path452" d="m238.4 473.4c2.4-7.5 10.9-19.5 26.4-16.4 16.8 3.3 25 9 17.1 57.9-6.9 42.4-19.2 90.7-21.1 97.8-0.087 0.294-0.24 0.565-0.448 0.79-0.209 0.225-0.466 0.4-0.752 0.51-3.932 1.312-8.056 1.954-12.2 1.9-7.4 0-15.5-2.7-18.7-5.5-0.35-0.31-0.623-0.697-0.796-1.132-0.174-0.434-0.244-0.902-0.204-1.368 0.8-12 6.8-104.1 7.3-111 1-9.9 1.7-18.2 3.4-23.5z"/>
   <path id="path454" d="m350.4 457c17.2 0.7 26.3 11.9 21.5 57.9-4.3 41.2-12 88.3-13.4 97.2-0.072 0.484-0.279 0.938-0.598 1.309-0.318 0.372-0.735 0.646-1.202 0.791-3.687 1.152-7.538 1.693-11.4 1.6-7 0-14.9-2.4-18.6-5.1-0.534-0.384-0.96-0.898-1.24-1.493s-0.404-1.251-0.36-1.907c0.3-10.7 1.5-67.3-2.5-110.3-2.6-27.4 11.7-40.7 27.8-40z"/>
  </g>
  <path id="path456" d="m267 485.1c7.677 0 13.9-5.193 13.9-11.6s-6.223-11.6-13.9-11.6-13.9 5.193-13.9 11.6 6.223 11.6 13.9 11.6z" stroke="#63657a" stroke-linecap="round" stroke-linejoin="round" stroke-width="1.8"/>
  <path id="path458" d="m352 485.1c7.677 0 13.9-5.193 13.9-11.6s-6.223-11.6-13.9-11.6-13.9 5.193-13.9 11.6 6.223 11.6 13.9 11.6z" stroke="#63657a" stroke-linecap="round" stroke-linejoin="round" stroke-width="1.8"/>
  <path id="path460" d="m331.6 370.9c-0.6-1.6-1-2.6-1-2.6l-32.1 6.7 0.6 15.9c12.3-3.4 23.5-10.8 32.5-20z" fill="#896068"/>
  <path id="path462" d="m340.1 396.2c-1.7-7.3-6.4-19.9-8.5-25.3-9 9.3-20.2 16.6-32.6 19.9l0.5 15.3 14.2 44.4 16.8-9.6c12.6-27.5 11.8-35.3 9.6-44.7z" fill="#b28d93"/>
  <path id="path464" d="m186.4 374.7c-0.355-0.144-0.678-0.356-0.951-0.625s-0.489-0.59-0.638-0.943-0.226-0.732-0.228-1.115 0.072-0.763 0.217-1.117c3.1-8.8 13.8-37.5 22.8-47.5 10.8-11.9 44.9-12.6 59.4-12.6s34.9 2.6 43 9.6c7 6 18.6 35.8 21.8 44.2 0.232 0.638 0.25 1.334 0.052 1.984-0.199 0.649-0.603 1.216-1.152 1.616-4 2.7-13.5 8.8-22.5 12.1l4.3 60.6s-93.4-1.4-97.1-3.2-8.5-23.7-7.8-26 7.4-27.8 7.4-27.8-18.8-4.9-28.6-9.2z" fill="#ffca29"/>
  <g fill="#f4c2c9">
   <path id="path466" d="m298.28 276.81c2.964-1.482 4.785-3.846 4.069-5.278-0.717-1.432-3.7-1.391-6.664 0.091-2.963 1.483-4.785 3.846-4.068 5.278 0.716 1.433 3.7 1.392 6.663-0.091z"/>
   <path id="path468" d="m318.49 290.51c2.964-1.482 4.785-3.845 4.069-5.278-0.717-1.432-3.7-1.391-6.664 0.091-2.963 1.483-4.785 3.846-4.068 5.279 0.717 1.432 3.7 1.391 6.663-0.092z"/>
   <path id="path470" d="m273.68 289.1c2.963-1.482 4.785-3.845 4.068-5.278-0.716-1.432-3.7-1.391-6.663 0.091-2.964 1.483-4.785 3.846-4.069 5.279 0.717 1.432 3.7 1.391 6.664-0.092z"/>
   <path id="path472" d="m293.89 302.8c2.963-1.483 4.785-3.846 4.068-5.279-0.716-1.432-3.7-1.391-6.663 0.092-2.964 1.482-4.785 3.845-4.068 5.278 0.716 1.432 3.699 1.391 6.663-0.091z"/>
   <path id="path474" d="m316.79 313.93c2.963-1.483 4.785-3.846 4.068-5.278-0.717-1.433-3.7-1.392-6.663 0.091-2.964 1.482-4.785 3.846-4.069 5.278 0.717 1.432 3.7 1.391 6.664-0.091z"/>
   <path id="path476" d="m337.01 327.64c2.963-1.483 4.785-3.846 4.068-5.278-0.717-1.433-3.7-1.392-6.663 0.091-2.964 1.483-4.785 3.846-4.069 5.278 0.717 1.432 3.7 1.392 6.664-0.091z"/>
   <path id="path478" d="m292.28 326.19c2.963-1.483 4.785-3.846 4.068-5.278-0.717-1.433-3.7-1.392-6.663 0.091-2.964 1.483-4.785 3.846-4.069 5.278 0.717 1.432 3.7 1.392 6.664-0.091z"/>
   <path id="path480" d="m312.49 339.89c2.963-1.483 4.785-3.846 4.068-5.278-0.716-1.432-3.7-1.392-6.663 0.091-2.964 1.483-4.785 3.846-4.069 5.278 0.717 1.433 3.7 1.392 6.664-0.091z"/>
   <path id="path482" d="m249.08 301.41c2.963-1.483 4.785-3.846 4.068-5.279-0.716-1.432-3.7-1.391-6.663 0.092-2.964 1.482-4.785 3.845-4.069 5.278 0.717 1.432 3.7 1.391 6.664-0.091z"/>
   <path id="path484" d="m269.29 315.11c2.963-1.483 4.785-3.846 4.068-5.278-0.716-1.433-3.7-1.392-6.663 0.091-2.964 1.482-4.785 3.846-4.068 5.278 0.716 1.432 3.699 1.391 6.663-0.091z"/>
   <path id="path486" d="m224.48 313.72c2.963-1.483 4.785-3.846 4.068-5.278-0.716-1.433-3.7-1.392-6.663 0.091-2.964 1.482-4.785 3.846-4.069 5.278 0.717 1.432 3.7 1.391 6.664-0.091z"/>
   <path id="path488" d="m244.68 327.42c2.963-1.483 4.784-3.846 4.068-5.278-0.717-1.433-3.7-1.392-6.664 0.091-2.963 1.483-4.785 3.846-4.068 5.278s3.7 1.392 6.664-0.091z"/>
   <path id="path490" d="m267.67 338.49c2.964-1.483 4.785-3.846 4.069-5.278-0.717-1.432-3.7-1.392-6.664 0.091-2.963 1.483-4.785 3.846-4.068 5.278 0.717 1.433 3.7 1.392 6.663-0.091z"/>
   <path id="path492" d="m287.89 352.2c2.963-1.482 4.784-3.846 4.068-5.278-0.717-1.432-3.7-1.391-6.664 0.091-2.963 1.483-4.785 3.846-4.068 5.278 0.717 1.433 3.7 1.392 6.664-0.091z"/>
   <path id="path494" d="m243.08 350.8c2.964-1.482 4.785-3.846 4.069-5.278-0.717-1.432-3.7-1.391-6.664 0.091-2.963 1.483-4.785 3.846-4.068 5.278 0.717 1.433 3.7 1.392 6.663-0.091z"/>
   <path id="path496" d="m263.28 364.5c2.963-1.482 4.784-3.845 4.068-5.278-0.717-1.432-3.7-1.391-6.664 0.091-2.963 1.483-4.785 3.846-4.068 5.279 0.717 1.432 3.7 1.391 6.664-0.092z"/>
   <path id="path498" d="m335.9 352.01c2.964-1.482 4.785-3.845 4.069-5.278-0.717-1.432-3.7-1.391-6.664 0.091-2.963 1.483-4.785 3.846-4.068 5.279 0.716 1.432 3.7 1.391 6.663-0.092z"/>
   <path id="path500" d="m356.11 365.71c2.964-1.483 4.785-3.846 4.069-5.279-0.717-1.432-3.7-1.391-6.664 0.092-2.963 1.482-4.785 3.845-4.068 5.278 0.717 1.432 3.7 1.391 6.663-0.091z"/>
   <path id="path502" d="m311.3 364.3c2.963-1.483 4.785-3.846 4.068-5.279-0.717-1.432-3.7-1.391-6.663 0.092-2.964 1.482-4.785 3.845-4.069 5.278 0.717 1.432 3.7 1.391 6.664-0.091z"/>
   <path id="path504" d="m331.5 378.01c2.963-1.483 4.785-3.846 4.068-5.278-0.716-1.433-3.7-1.392-6.663 0.091-2.964 1.483-4.785 3.846-4.069 5.278 0.717 1.432 3.7 1.392 6.664-0.091z"/>
   <path id="path506" d="m354.41 389.14c2.963-1.483 4.785-3.846 4.068-5.278-0.717-1.433-3.7-1.392-6.664 0.091-2.963 1.483-4.784 3.846-4.068 5.278 0.717 1.432 3.7 1.392 6.664-0.091z"/>
   <path id="path508" d="m374.71 402.79c2.963-1.483 4.785-3.846 4.068-5.278s-3.7-1.392-6.663 0.091c-2.964 1.483-4.785 3.846-4.069 5.278 0.717 1.433 3.7 1.392 6.664-0.091z"/>
   <path id="path510" d="m329.9 401.4c2.963-1.483 4.785-3.846 4.068-5.278s-3.7-1.392-6.663 0.091c-2.964 1.483-4.785 3.846-4.069 5.278 0.717 1.433 3.7 1.392 6.664-0.091z"/>
   <path id="path512" d="m350.1 415.1c2.963-1.482 4.785-3.846 4.068-5.278-0.716-1.432-3.7-1.391-6.663 0.091-2.964 1.483-4.785 3.846-4.069 5.278 0.717 1.433 3.7 1.392 6.664-0.091z"/>
   <path id="path514" d="m286.7 376.62c2.963-1.483 4.785-3.846 4.068-5.278-0.717-1.433-3.7-1.392-6.663 0.091-2.964 1.482-4.785 3.846-4.069 5.278 0.717 1.432 3.7 1.391 6.664-0.091z"/>
   <path id="path516" d="m306.91 390.32c2.963-1.483 4.785-3.846 4.068-5.278-0.716-1.433-3.7-1.392-6.663 0.091-2.964 1.483-4.785 3.846-4.069 5.278 0.717 1.433 3.7 1.392 6.664-0.091z"/>
   <path id="path518" d="m262.09 388.92c2.964-1.483 4.785-3.846 4.069-5.278-0.717-1.433-3.7-1.392-6.664 0.091-2.963 1.483-4.785 3.846-4.068 5.278 0.717 1.433 3.7 1.392 6.663-0.091z"/>
   <path id="path520" d="m282.3 402.62c2.964-1.483 4.785-3.846 4.069-5.278-0.717-1.432-3.7-1.392-6.664 0.091-2.963 1.483-4.785 3.846-4.068 5.278 0.717 1.433 3.7 1.392 6.663-0.091z"/>
   <path id="path522" d="m305.29 413.7c2.964-1.482 4.785-3.846 4.069-5.278-0.717-1.432-3.7-1.391-6.664 0.091-2.963 1.483-4.785 3.846-4.068 5.278 0.717 1.433 3.7 1.392 6.663-0.091z"/>
   <path id="path524" d="m325.51 427.4c2.964-1.482 4.785-3.845 4.069-5.278-0.717-1.432-3.7-1.391-6.664 0.091-2.963 1.483-4.785 3.846-4.068 5.279 0.717 1.432 3.7 1.391 6.663-0.092z"/>
   <path id="path526" d="m280.69 426c2.964-1.482 4.785-3.845 4.069-5.278-0.717-1.432-3.7-1.391-6.664 0.091-2.963 1.483-4.785 3.846-4.068 5.279 0.717 1.432 3.7 1.391 6.663-0.092z"/>
   <path id="path528" d="m300.9 439.7c2.964-1.483 4.785-3.846 4.069-5.279-0.717-1.432-3.7-1.391-6.664 0.092-2.963 1.482-4.785 3.845-4.068 5.278 0.717 1.432 3.7 1.391 6.663-0.091z"/>
   <path id="path530" d="m199.71 326.2c2.963-1.483 4.785-3.846 4.068-5.278-0.716-1.433-3.7-1.392-6.663 0.091-2.964 1.483-4.785 3.846-4.068 5.278 0.716 1.433 3.7 1.392 6.663-0.091z"/>
   <path id="path532" d="m219.87 339.81c2.964-1.483 4.785-3.846 4.068-5.279-0.716-1.432-3.7-1.391-6.663 0.092-2.964 1.482-4.785 3.845-4.068 5.278 0.716 1.432 3.7 1.391 6.663-0.091z"/>
   <path id="path534" d="m175.11 338.5c2.963-1.482 4.785-3.846 4.068-5.278s-3.7-1.392-6.664 0.091c-2.963 1.483-4.785 3.846-4.068 5.278 0.717 1.433 3.7 1.392 6.664-0.091z"/>
   <path id="path536" d="m195.31 352.2c2.963-1.482 4.785-3.845 4.068-5.278-0.717-1.432-3.7-1.391-6.664 0.091-2.963 1.483-4.784 3.846-4.068 5.279 0.717 1.432 3.7 1.391 6.664-0.092z"/>
   <path id="path538" d="m218.21 363.33c2.963-1.483 4.785-3.846 4.068-5.279-0.716-1.432-3.7-1.391-6.663 0.092-2.964 1.482-4.785 3.845-4.069 5.278 0.717 1.432 3.7 1.391 6.664-0.091z"/>
   <path id="path540" d="m238.38 376.94c2.963-1.483 4.785-3.846 4.068-5.279-0.716-1.432-3.7-1.391-6.663 0.092-2.964 1.482-4.785 3.845-4.068 5.278 0.716 1.432 3.699 1.391 6.663-0.091z"/>
   <path id="path542" d="m193.71 375.59c2.963-1.483 4.784-3.846 4.068-5.278-0.717-1.433-3.7-1.392-6.664 0.091-2.963 1.482-4.785 3.846-4.068 5.278s3.7 1.391 6.664-0.091z"/>
   <path id="path544" d="m213.91 389.29c2.964-1.483 4.785-3.846 4.068-5.278-0.716-1.433-3.7-1.392-6.663 0.091-2.964 1.483-4.785 3.846-4.068 5.278 0.716 1.432 3.7 1.392 6.663-0.091z"/>
   <path id="path546" d="m150.51 350.8c2.963-1.482 4.785-3.845 4.068-5.278-0.717-1.432-3.7-1.391-6.664 0.091-2.963 1.483-4.784 3.846-4.068 5.279 0.717 1.432 3.7 1.391 6.664-0.092z"/>
   <path id="path548" d="m170.71 364.51c2.963-1.483 4.785-3.846 4.068-5.279-0.717-1.432-3.7-1.391-6.664 0.092-2.963 1.482-4.784 3.845-4.068 5.278 0.717 1.432 3.7 1.391 6.664-0.091z"/>
   <path id="path550" d="m125.9 363.11c2.964-1.483 4.785-3.846 4.068-5.279-0.716-1.432-3.7-1.391-6.663 0.092-2.963 1.482-4.785 3.845-4.068 5.278 0.716 1.432 3.7 1.391 6.663-0.091z"/>
   <path id="path552" d="m146.12 376.81c2.964-1.483 4.785-3.846 4.069-5.278-0.717-1.433-3.7-1.392-6.664 0.091-2.963 1.482-4.785 3.846-4.068 5.278 0.716 1.432 3.7 1.391 6.663-0.091z"/>
   <path id="path554" d="m169.1 387.89c2.964-1.483 4.785-3.846 4.068-5.278-0.716-1.433-3.7-1.392-6.663 0.091-2.964 1.483-4.785 3.846-4.068 5.278 0.716 1.432 3.7 1.392 6.663-0.091z"/>
   <path id="path556" d="m189.32 401.59c2.964-1.483 4.785-3.846 4.068-5.278-0.716-1.432-3.7-1.392-6.663 0.091-2.964 1.483-4.785 3.846-4.068 5.278 0.716 1.433 3.7 1.392 6.663-0.091z"/>
   <path id="path558" d="m144.5 400.2c2.964-1.483 4.785-3.846 4.068-5.278-0.716-1.432-3.7-1.392-6.663 0.091-2.964 1.483-4.785 3.846-4.068 5.278 0.716 1.433 3.7 1.392 6.663-0.091z"/>
   <path id="path560" d="m164.72 413.9c2.964-1.482 4.785-3.846 4.068-5.278-0.716-1.432-3.7-1.391-6.663 0.091-2.963 1.483-4.785 3.846-4.068 5.278 0.716 1.433 3.7 1.392 6.663-0.091z"/>
   <path id="path562" d="m237.29 401.31c2.964-1.483 4.785-3.846 4.069-5.278-0.717-1.433-3.7-1.392-6.664 0.091-2.963 1.482-4.785 3.846-4.068 5.278s3.7 1.391 6.663-0.091z"/>
   <path id="path564" d="m257.49 415.01c2.963-1.483 4.784-3.846 4.068-5.278-0.717-1.433-3.7-1.392-6.664 0.091-2.963 1.483-4.785 3.846-4.068 5.278s3.7 1.392 6.664-0.091z"/>
   <path id="path566" d="m212.69 413.62c2.963-1.483 4.784-3.846 4.068-5.278-0.717-1.433-3.7-1.392-6.664 0.091-2.963 1.483-4.785 3.846-4.068 5.278s3.7 1.392 6.664-0.091z"/>
   <path id="path568" d="m232.89 427.31c2.963-1.483 4.784-3.846 4.068-5.278-0.717-1.433-3.7-1.392-6.664 0.091-2.963 1.483-4.785 3.846-4.068 5.278 0.717 1.433 3.7 1.392 6.664-0.091z"/>
   <path id="path570" d="m255.89 438.4c2.964-1.483 4.785-3.846 4.069-5.278-0.717-1.432-3.7-1.392-6.664 0.091-2.963 1.483-4.785 3.846-4.068 5.278 0.717 1.433 3.7 1.392 6.663-0.091z"/>
   <path id="path572" d="m276.08 452.1c2.963-1.483 4.784-3.846 4.068-5.278-0.717-1.433-3.7-1.392-6.664 0.091-2.963 1.482-4.785 3.846-4.068 5.278s3.7 1.392 6.664-0.091z"/>
   <path id="path574" d="m231.27 450.7c2.964-1.483 4.785-3.846 4.068-5.278-0.716-1.433-3.7-1.392-6.663 0.091-2.964 1.483-4.785 3.846-4.068 5.278 0.716 1.432 3.7 1.392 6.663-0.091z"/>
   <path id="path576" d="m251.49 464.4c2.964-1.483 4.785-3.846 4.068-5.278-0.716-1.433-3.7-1.392-6.663 0.091-2.964 1.483-4.785 3.846-4.068 5.278 0.716 1.433 3.7 1.392 6.663-0.091z"/>
   <path id="path578" d="m188.08 425.92c2.963-1.483 4.784-3.846 4.068-5.278-0.717-1.433-3.7-1.392-6.664 0.091-2.963 1.483-4.785 3.846-4.068 5.278 0.717 1.433 3.7 1.392 6.664-0.091z"/>
   <path id="path580" d="m208.29 439.61c2.964-1.482 4.785-3.846 4.068-5.278-0.716-1.432-3.7-1.391-6.663 0.091-2.964 1.483-4.785 3.846-4.068 5.278 0.716 1.433 3.7 1.392 6.663-0.091z"/>
   <path id="path582" d="m163.48 438.22c2.964-1.482 4.785-3.846 4.068-5.278-0.716-1.432-3.7-1.391-6.663 0.091-2.964 1.483-4.785 3.846-4.068 5.278 0.716 1.433 3.7 1.392 6.663-0.091z"/>
   <path id="path584" d="m183.69 451.92c2.964-1.482 4.785-3.845 4.068-5.278-0.716-1.432-3.7-1.391-6.663 0.091-2.964 1.483-4.785 3.846-4.068 5.279 0.716 1.432 3.7 1.391 6.663-0.092z"/>
   <path id="path586" d="m206.67 463c2.964-1.483 4.785-3.846 4.068-5.278-0.716-1.433-3.7-1.392-6.663 0.091-2.964 1.483-4.785 3.846-4.068 5.278 0.716 1.433 3.7 1.392 6.663-0.091z"/>
   <path id="path588" d="m226.88 476.7c2.964-1.483 4.785-3.846 4.068-5.278-0.716-1.432-3.7-1.392-6.663 0.091-2.964 1.483-4.785 3.846-4.068 5.278 0.716 1.433 3.7 1.392 6.663-0.091z"/>
   <path id="path590" d="m182.07 475.31c2.964-1.483 4.785-3.846 4.068-5.278-0.716-1.432-3.7-1.392-6.663 0.091-2.964 1.483-4.785 3.846-4.068 5.278 0.716 1.433 3.7 1.392 6.663-0.091z"/>
   <path id="path592" d="m202.28 489.01c2.963-1.482 4.785-3.845 4.068-5.278-0.717-1.432-3.7-1.391-6.663 0.091-2.964 1.483-4.785 3.846-4.069 5.279 0.717 1.432 3.7 1.391 6.664-0.092z"/>
  </g>
  <path id="path594" d="m215 383.9s3.7 1 5.2 1.3c0 0 8.2-23.2 9.3-29.7s1.1-11.3 0-13.5" stroke="#5d88f8" stroke-linecap="round" stroke-linejoin="round" stroke-width="1.8"/>
  <path id="path596" d="m308.2 380.3s-0.9-27.2-1.3-32.8-0.6-10.4-2.4-14.1" stroke="#5d88f8" stroke-linecap="round" stroke-linejoin="round" stroke-width="1.8"/>
  <path id="path598" d="m215 383.9s-20-5.4-28.2-9c0 0-0.3 0.8-0.7 2.1 8.3 6.1 17.3 11.6 27 13.9z" fill="#896068"/>
  <path id="path600" d="m262.5 434c-3-0.3-13.2 2.2-13.2 2.2-10-10.2-38.8-35.2-38.8-35.2l2.7-10.2c-9.7-2.3-18.7-7.8-27-13.9-2 6-7.5 23.8-6 32.9 1.9 11.1 32.8 30.9 57.3 43.5 0 0 3.3 3.6 11.5 6.1 2.7 0.8 6.4 2.1 7.9 2.3s5.4-0.2 7.8 0 3.5-1.9 6.1-1.6 3.3-1.4 5.2-0.3 3.3-1.1 3.3-3.3-13.8-22.1-16.8-22.5z" fill="#b28d93"/>
  <path id="path602" d="m210.5 401.1s-7.2-2.8-12.9 0" stroke="#89555f" stroke-linecap="round" stroke-linejoin="round" stroke-width="1.8"/>
  <path id="path604" d="m283.7 318.5c0.4 9.6-7.9 17.2-18.4 16.9s-19.4-8.4-19.7-18 8.7-12.6 19.3-12.3 18.5 3.8 18.8 13.4z" fill="#fff"/>
  <path id="path606" d="m250.5 293.5s0.2 19.9 0 23.6 4.1 12.8 16.6 12.8 13.1-12.2 12.9-12.8-0.7-19.4-1.3-20.6c-0.4-1.2-24.6-7.8-28.2-3z" fill="#b28d93"/>
  <path id="path608" d="m257.7 309.4c5.9 6.7 14.1 9.2 22.3 8.8 0.057-0.364 0.057-0.736 0-1.1 0-0.2-0.1-1.7-0.2-3.9-7.4 2.3-14.7-1.7-22.1-3.8z" fill="#896068"/>
  <path id="path610" d="m284.4 294.8c3.286-5.274 5.337-11.222 6-17.4 1.4-11.6-4.1-19.7-11.6-23.3-5.2-2.5-23.9-6.8-35.5 4.5-7.3 7.1-8.3 30.2 3.1 35.7 14.6 7 2.2 8.5 2.8 9.1 0 0 0.3 1.7 4.5-2.8s30.7-5.8 30.7-5.8z" fill="#22242e"/>
  <path id="path612" d="m287.5 280.5s-0.8 13.2-1.4 21.1-4.6 16-18.1 16.4-19.9-9.9-21.4-17.6c-2.2-11.7-6-34.3 12.7-36.9s28.2 3.3 28.2 17z" fill="#b28d93"/>
  <path id="path614" d="m287.5 272.4s-11.6 13.4-29.1 2.8c-6.4-3.9-7.9 1.9-7.9 4.2 0 3.2 1.5 9.5-3.5 12.1-2 1-5.1-5.2-3.4-19.1s28-12.8 36.7-11.8 8.6 5.6 7.2 11.8z" fill="#22242e"/>
  <path id="path616" d="m249 290.1s-2-8.3-7.5-6.6-3.1 15.2 5.9 16.9" fill="#b28d93"/>
  <path id="path618" d="m268.8 308.4c-1.294-4e-3 -2.573-0.273-3.759-0.789-1.187-0.515-2.255-1.268-3.141-2.211" stroke="#22242e" stroke-linecap="round" stroke-linejoin="round" stroke-width="1.8"/>
  <g fill="#22242e">
   <path id="path620" d="m279.8 293.4c0.237 1e-3 0.471-0.044 0.69-0.134s0.418-0.223 0.586-0.39c0.167-0.168 0.3-0.367 0.39-0.586s0.135-0.453 0.134-0.69v-1c1e-3 -0.237-0.044-0.471-0.134-0.69s-0.223-0.418-0.39-0.586c-0.168-0.167-0.367-0.3-0.586-0.39s-0.453-0.135-0.69-0.134c-0.237-1e-3 -0.471 0.044-0.69 0.134s-0.418 0.223-0.586 0.39c-0.167 0.168-0.3 0.367-0.39 0.586s-0.135 0.453-0.134 0.69v1c0.015 0.473 0.209 0.922 0.544 1.256 0.334 0.335 0.783 0.529 1.256 0.544z"/>
   <path id="path622" d="m262.3 293.4c0.237 1e-3 0.471-0.044 0.69-0.134s0.418-0.223 0.586-0.39c0.167-0.168 0.3-0.367 0.39-0.586s0.135-0.453 0.134-0.69v-1c1e-3 -0.237-0.044-0.471-0.134-0.69s-0.223-0.418-0.39-0.586c-0.168-0.167-0.367-0.3-0.586-0.39s-0.453-0.135-0.69-0.134c-0.237-1e-3 -0.471 0.044-0.69 0.134s-0.418 0.223-0.586 0.39c-0.167 0.168-0.3 0.367-0.39 0.586s-0.135 0.453-0.134 0.69v1c-1e-3 0.237 0.044 0.471 0.134 0.69s0.223 0.418 0.39 0.586c0.168 0.167 0.367 0.3 0.586 0.39s0.453 0.135 0.69 0.134z"/>
   <path id="path624" d="m283.4 284.2c-0.136-0.828-0.586-1.571-1.257-2.074s-1.511-0.727-2.343-0.626c-3.1 0.1-3.6 1.9-3.2 3.1 0.3 1 1.7-0.1 3.3-0.3 1.8-0.1 3.6 0.9 3.5-0.1z"/>
   <path id="path626" d="m270.7 304.2c0.664 0.026 1.324-0.116 1.919-0.413 0.594-0.297 1.104-0.74 1.481-1.287 0.352-0.547 0.59-1.159 0.7-1.8 0.156-0.657 0.256-1.326 0.3-2 0.031-1.403-0.036-2.806-0.2-4.2-0.199-1.493-0.199-3.007 0-4.5 0.5 1.4 1 2.8 1.4 4.2 0.214 0.722 0.381 1.457 0.5 2.2 0.131 0.759 0.165 1.532 0.1 2.3 0 1.657-0.605 3.257-1.7 4.5-0.586 0.625-1.357 1.046-2.2 1.2-0.768 0.188-1.576 0.117-2.3-0.2z"/>
   <path id="path628" d="m257.7 284.2c0.1-1.2 1.4-2.8 3.8-2.7 3.4 0.2 3.9 1.9 3.5 3.1-0.4 1-1.8-0.1-3.5-0.3-2-0.1-3.9 0.9-3.8-0.1z"/>
   <path id="path630" d="m241.6 289.1c0.093-0.467 0.339-0.889 0.7-1.2 0.129-0.091 0.28-0.148 0.437-0.166 0.158-0.017 0.317 6e-3 0.463 0.066 0.077 1e-3 0.153 0.02 0.223 0.055 0.069 0.034 0.129 0.084 0.177 0.145 0.1 0.1 0.3 0.2 0.3 0.3 0.334 0.351 0.605 0.757 0.8 1.2 0.501 1.165 0.64 2.454 0.4 3.7-0.05 0.298-0.05 0.602 0 0.9 0.1 0.3 0.4 0.5 0.7 0.8-0.235 0.062-0.48 0.077-0.72 0.042-0.241-0.034-0.472-0.116-0.68-0.242-0.392-0.343-0.671-0.796-0.8-1.3-0.2-0.9-0.3-1.6-0.4-2.3-0.1-0.3-0.1-0.7-0.2-1l-0.3-0.9c-0.1-0.2-0.1-0.4-0.4-0.4 0.1-0.1-0.3 0.1-0.7 0.3z"/>
  </g>
  <g stroke="#fff" stroke-linecap="round" stroke-linejoin="round" stroke-width="1.8">
   <path id="path632" d="m260.6 300.3c4.694 0 8.5-3.806 8.5-8.5s-3.806-8.5-8.5-8.5-8.5 3.806-8.5 8.5 3.806 8.5 8.5 8.5z"/>
   <path id="path634" d="m283.5 300.3c4.253 0 7.7-3.806 7.7-8.5s-3.447-8.5-7.7-8.5-7.7 3.806-7.7 8.5 3.447 8.5 7.7 8.5z"/>
   <path id="path636" d="m252.6 288.9h-1.4c-0.618-1e-3 -1.218-0.213-1.7-0.6l-1.7-1.4"/>
   <path id="path638" d="m268.9 290s4.7-1.7 6.9 0"/>
  </g>
  <path id="path640" d="m353.4 466h-96c-0.657 1e-3 -1.305-0.15-1.894-0.441-0.589-0.292-1.102-0.716-1.499-1.239-0.398-0.523-0.668-1.131-0.791-1.777-0.123-0.645-0.094-1.31 0.084-1.943l7.2-26.5 7.3-27c0.384-1.459 1.239-2.75 2.433-3.672 1.193-0.923 2.658-1.425 4.167-1.428h96c0.657-1e-3 1.305 0.15 1.894 0.441 0.589 0.292 1.102 0.716 1.499 1.239 0.398 0.523 0.668 1.131 0.791 1.777 0.122 0.645 0.094 1.311-0.084 1.943l-14.5 53.5c-0.384 1.459-1.239 2.75-2.433 3.672-1.193 0.923-2.658 1.425-4.167 1.428z" fill="#22242e"/>
  <path id="path642" d="m374.5 407.5-14.5 53.4c-0.384 1.459-1.239 2.75-2.433 3.672-1.193 0.923-2.658 1.425-4.167 1.428h-96" stroke="#63657a" stroke-linecap="round" stroke-linejoin="round" stroke-width="1.8"/>
  <path id="path644" d="m321.57 439.51c3.319-2.915 4.179-7.365 1.919-9.937-2.259-2.573-6.782-2.296-10.102 0.62-3.32 2.915-4.179 7.365-1.92 9.937 2.26 2.573 6.783 2.295 10.103-0.62z" fill="#63657a"/>
  <path id="path646" d="m238.1 271.2c-1.188 5.396-3.697 10.412-7.3 14.6-0.27 0.292-0.476 0.639-0.603 1.016-0.128 0.377-0.174 0.777-0.136 1.173 0.038 0.397 0.158 0.781 0.355 1.127 0.196 0.347 0.463 0.648 0.784 0.884 0.3 0.24 0.646 0.418 1.016 0.523s0.757 0.136 1.139 0.089 0.751-0.169 1.085-0.36 0.626-0.447 0.86-0.752c3.524-4.339 6.419-9.153 8.6-14.3 2-5.2-5.3-5.9-5.8-4z" fill="#22242e"/>
 </g>
</svg>
